<svg width="1288" height="2949" viewBox="0 0 1288 2949" fill="none" xmlns="http://www.w3.org/2000/svg">
<rect width="1280" height="2948.13" fill="white"/>
<g opacity="0.1">
<path d="M1088.93 2123.62C1059.42 2112.81 1027.25 2116.69 998.785 2128.8C981.736 2134.9 965.358 2143.07 950.958 2154.06C949.416 2155.36 947.639 2156.72 946.518 2158.42C945.923 2158.69 945.354 2159.04 944.836 2159.57C921.037 2179.14 911.307 2210.62 906.648 2240.07C898.667 2297.68 925.627 2354.79 962.069 2397.99C991.798 2431.75 1034.12 2457.24 1079.81 2459.06C1106.79 2459.94 1132.93 2449.86 1156.61 2437.78C1202.13 2417.61 1230.02 2370.9 1232.01 2321.87C1234.91 2280.28 1218.11 2239.46 1195.17 2205.55C1170.18 2167.32 1132.46 2137.88 1089.02 2123.65L1088.93 2123.62ZM1215.62 2280.77C1226.83 2329.37 1213.67 2382.45 1172.33 2413.67C1155.61 2424.99 1127.56 2438.96 1104.14 2444.03C1092.71 2447.54 1073.48 2446.14 1066.08 2445.16C1018.74 2435.08 985.885 2411.01 956.898 2370.75C936.208 2342.44 917.3 2296.83 917.762 2261.18C918.222 2234.52 924.946 2207.93 937.794 2186.79C944.333 2176.25 946.956 2175.58 954.232 2167.61C955.504 2167.17 956.705 2166.34 957.66 2165.13C979.35 2148.56 1010.98 2134.77 1041.95 2130.37C1070.5 2127.24 1105 2140.68 1134.24 2160.52C1173.73 2188.9 1203.2 2232.91 1215.54 2280.8L1215.62 2280.77Z" fill="#1F7AE0"/>
<path d="M1096.45 2202.73C1081.49 2191.87 1063.39 2186.35 1044.94 2186.23C1030.7 2185.34 1016.23 2188.22 1004.56 2196.71C1001.28 2199.34 996.596 2201.06 994.457 2204.76C993.129 2205.14 991.898 2205.99 991.05 2207.44C984.214 2215.34 980.642 2225.34 977.774 2235.24C973.017 2251.86 972.467 2269.65 977.416 2286.3C992.198 2332.28 1028 2376.01 1076.1 2388.48C1111.31 2396.13 1150.3 2373.73 1160.97 2339.26C1172.47 2289.26 1134.42 2232.44 1096.45 2202.73ZM1147.56 2299.28C1152.25 2315.22 1150.71 2333.76 1145.83 2342.88C1134.37 2365.04 1111.69 2377.43 1089.58 2377.1C1047.16 2374.63 1009.5 2333.95 992.062 2290.12C986.22 2275.97 984.648 2253.93 990.613 2236.98C993.708 2227.93 993.906 2226.02 998.098 2219.26C999.293 2217.21 1001.32 2215.52 1002.25 2213.37C1011.66 2208.08 1019.05 2200.79 1030.94 2199.49C1048.65 2197.82 1070.16 2199.87 1086.91 2211.77C1113.8 2230.75 1139.28 2267.19 1147.59 2299.31L1147.56 2299.28Z" fill="#1F7AE0"/>
<path d="M985.678 2367.13C979.733 2372.59 988.064 2381.66 994.037 2376.23C999.982 2370.77 991.651 2361.7 985.678 2367.13Z" fill="#1F7AE0"/>
<path d="M953.276 2293.99C947.331 2299.45 955.662 2308.52 961.634 2303.09C967.579 2297.63 959.248 2288.56 953.276 2293.99Z" fill="#1F7AE0"/>
<path d="M952.917 2203.43C946.972 2208.9 955.303 2217.96 961.276 2212.53C967.221 2207.07 958.89 2198 952.917 2203.43Z" fill="#1F7AE0"/>
<path d="M1040.12 2151.4C1034.18 2156.86 1042.51 2165.93 1048.48 2160.5C1054.43 2155.04 1046.1 2145.97 1040.12 2151.4Z" fill="#1F7AE0"/>
<path d="M1112.82 2178.18C1106.88 2183.65 1115.21 2192.71 1121.18 2187.28C1127.13 2181.82 1118.8 2172.75 1112.82 2178.18Z" fill="#1F7AE0"/>
<path d="M1168.28 2234.16C1162.33 2239.62 1170.66 2248.69 1176.64 2243.26C1182.58 2237.8 1174.25 2228.73 1168.28 2234.16Z" fill="#1F7AE0"/>
<path d="M1185.54 2319.87C1179.6 2325.33 1187.93 2334.4 1193.9 2328.97C1199.85 2323.51 1191.52 2314.44 1185.54 2319.87Z" fill="#1F7AE0"/>
<path d="M1116.21 2410.29C1110.26 2415.75 1118.6 2424.82 1124.57 2419.39C1130.51 2413.93 1122.18 2404.86 1116.21 2410.29Z" fill="#1F7AE0"/>
<path d="M1048.85 2405.34C1042.91 2410.8 1051.24 2419.87 1057.21 2414.43C1063.16 2408.97 1054.82 2399.9 1048.85 2405.34Z" fill="#1F7AE0"/>
<path d="M882.307 2472.3C879.412 2469.06 874.299 2470.12 870.427 2468.87C859.749 2466.72 849.233 2463.66 838.403 2462.2C827.075 2460.26 819.864 2461.04 815.84 2473.02C806.04 2497.62 799.318 2523.32 789.302 2547.8C787.64 2551.39 786.691 2553.6 785.605 2555.52C776.009 2534.13 761.86 2500.3 749.318 2476.09C737.191 2453.08 730.398 2465.09 712.898 2473.61C701.468 2480.31 687.141 2486.81 678.366 2489.2C676.806 2489.99 676.089 2491.33 675.892 2492.78C673.598 2493.93 671.985 2496.53 673.237 2499.32C687.097 2528.82 704.249 2556.74 720.746 2584.84C740.791 2618.76 761.582 2652.42 785.884 2683.53C791.024 2688.82 795.926 2701.35 804.879 2697.93C809.601 2695.6 812.346 2690.9 814.998 2686.56C820.528 2677.23 825.186 2667.4 829.029 2657.26C846.043 2613.53 855.468 2573.87 867.99 2530.17C871.928 2515.53 876.074 2500.92 879.525 2486.16C880.111 2484.3 880.585 2482.08 880.38 2480.11C883.237 2478.85 884.326 2474.72 882.299 2472.23L882.307 2472.3ZM859.572 2521.56C844.216 2573.95 835.03 2620.04 810.939 2672.34C807.48 2678.95 804.838 2683.93 801.962 2686.99C796.286 2680.07 779.247 2658.09 771.507 2646.14C747.367 2610.25 723.121 2569.29 703.934 2535.47C697.099 2523.18 690.444 2510.69 684.093 2498.21C701.813 2493.18 717.326 2482.51 733.626 2474.14C733.939 2473.93 734.485 2473.7 734.998 2473.46C744.519 2485.87 757.476 2518.52 767.624 2540.56C774.005 2554.12 781.917 2586.17 796.191 2557.76C809.083 2531.34 816.593 2493.73 828.298 2472.02C828.365 2472.01 828.394 2471.97 828.428 2471.97C836.475 2471.4 855.999 2476.5 868.532 2479.18C869.152 2479.27 869.776 2479.4 870.397 2479.49C869.346 2482.26 869.108 2485.87 868.262 2488.38C865.585 2499.49 862.493 2510.52 859.505 2521.57L859.572 2521.56Z" fill="#1F7AE0"/>
<path d="M800.339 2635.98C800.339 2635.98 800.484 2636.06 800.264 2635.92C799.898 2635.7 799.566 2635.47 799.259 2635.16C799.027 2634.92 798.828 2634.68 798.624 2634.4C797.417 2633.09 796.295 2628.02 796.585 2625.95C796.716 2619.78 798.661 2613.8 798.763 2607.66C799.412 2599.64 792.385 2593.29 784.89 2592C778.94 2590.62 770.858 2592.85 768.849 2592.18C768.674 2592.14 768.499 2592.09 768.325 2592.04C768.325 2592.04 768.291 2592.05 768.254 2592.02C768.212 2591.96 768.134 2591.87 768.088 2591.77C768.076 2591.67 768.001 2591.61 767.948 2591.45C766.152 2588.35 767.638 2581.64 769.477 2572.83C773.272 2551.71 745.648 2551.2 740.831 2547.46C737.428 2544.22 737.043 2542.44 738.845 2532.48C739.865 2527.79 741.468 2523.17 741.111 2518.27C740.16 2500.4 722.785 2496.28 709.362 2504.95C705.364 2508.51 709.911 2515.33 714.787 2513.15C725.836 2508.05 729.923 2511.07 731.003 2517.74C732.163 2523.96 723.712 2540.44 730.318 2550.56C732.218 2553.68 735.149 2556.1 738.446 2557.62C739.78 2558.31 746.1 2559.94 747.527 2560.28C750.613 2561.19 753.657 2562.31 756.487 2563.89C756.487 2563.89 756.487 2563.89 756.558 2563.91C756.741 2564.03 756.924 2564.14 757.073 2564.26C757.51 2564.51 757.925 2564.86 758.186 2565.07C758.663 2565.65 759.044 2566.28 758.994 2566.16C760.901 2569.88 757.793 2576.04 757.131 2585.08C756.768 2591.01 758.221 2598.24 763.982 2601.13C769.187 2603.34 774.881 2601.77 780.329 2601.51C780.841 2601.55 781.353 2601.59 781.869 2601.66C785.394 2602.28 784.977 2602.47 786.228 2603.03C786.748 2603.4 787.204 2603.82 787.665 2604.27C787.939 2604.58 788.22 2604.95 788.461 2605.26C788.51 2605.39 788.556 2605.49 788.572 2605.62C788.637 2606.15 788.701 2606.68 788.733 2607.22C788.986 2609.86 785.108 2625.01 787.13 2632.48C787.913 2635.86 789.346 2639.31 791.781 2641.82C794.894 2645.74 801.452 2647.11 802.802 2640.96C803.135 2638.96 802.043 2636.92 800.331 2635.91L800.339 2635.98Z" fill="#1F7AE0"/>
<path d="M849.009 2487.46C847.264 2482.84 839.994 2483.69 839.377 2488.63C839.023 2490.74 840.42 2492.5 840.926 2494.43C840.954 2494.66 841.049 2494.89 841.073 2495.09C841.598 2499.69 841.89 2498.47 840.97 2502.88C840.865 2503.13 840.764 2503.41 840.626 2503.67C840.366 2504.04 839.998 2504.62 839.642 2505.04C837.616 2506.74 835.313 2508.1 833.039 2509.42C813.894 2519.15 822.546 2532.2 826.694 2546.89C827.38 2553.09 826.713 2554.56 825.275 2557.2C823.381 2560.27 821.223 2560.6 814.525 2563.38C807.369 2566.28 804.097 2574.15 805.128 2581.53C805.59 2586.17 807.761 2590.41 810.037 2594.39C811.884 2597.08 813.205 2600.43 815.905 2602.34C820.358 2605.32 825.831 2599.14 822.452 2594.98C816.072 2585.88 813.264 2580.58 816.068 2574.42C817.732 2572.53 818.577 2572.52 824.39 2570.26C833.631 2566.71 838.094 2556.66 836.842 2547.18C836.287 2541.49 831.518 2530.34 831.589 2529.25C829.873 2521.24 832.549 2521.56 841.13 2516.19C852.29 2510.6 853.73 2497.95 848.967 2487.4L849.009 2487.46Z" fill="#1F7AE0"/>
<path d="M876.82 1946.95C874.14 1925.21 861.501 1906.5 844.934 1892.69C835.73 1884.06 825.456 1876.5 814.061 1871.07C812.761 1870.53 811.357 1869.85 809.945 1869.7C809.591 1869.42 809.19 1869.18 808.695 1869.02C788.99 1860.49 766.375 1864.47 746.632 1870.94C708.367 1884.32 681.526 1919.2 666.326 1955.54C654.844 1984.71 652.495 2019.07 665.897 2047.98C673.932 2064.99 688.499 2077.99 703.526 2088.84C730.506 2110.65 768.345 2113.09 799.385 2098.73C826.099 2087.3 846.069 2063.9 859.805 2038.89C875.561 2011.23 881.819 1978.48 876.827 1947.01L876.82 1946.95ZM819.658 2075.5C793.082 2097.9 755.983 2106.63 723.476 2090.92C711.133 2084.15 693.549 2071.2 682.957 2058.29C677.146 2052.32 671.895 2039.94 670.154 2035.05C661.347 2002.48 665.827 1974.45 681.574 1943.67C692.548 1921.83 714.815 1895.6 737.076 1884.55C753.751 1876.36 772.379 1872.07 789.577 1873.31C798.191 1874.02 799.444 1875.43 806.7 1877.41C807.379 1878.05 808.272 1878.54 809.328 1878.74C826.502 1886.92 845.111 1902.15 857.689 1919.96C868.713 1936.67 871.348 1962.34 868.347 1986.78C863.309 2020.29 845.389 2052.57 819.614 2075.45L819.658 2075.5Z" fill="#1F7AE0"/>
<path d="M830.149 1976.77C832.13 1964.04 829.795 1951.06 823.997 1939.58C820.022 1930.47 813.633 1922.41 804.661 1917.88C801.984 1916.67 799.426 1914.32 796.452 1914.17C795.793 1913.47 794.874 1912.97 793.704 1912.91C786.631 1911.18 779.298 1912.15 772.242 1913.52C760.424 1915.85 749.219 1921.17 740.468 1929.53C716.653 1953.33 700.925 1989.44 708.484 2023.23C714.942 2047.5 741.231 2064.55 766.001 2060.21C800.666 2051.44 823.803 2009.77 830.149 1976.77ZM786.53 2039.18C778.136 2047.16 766.152 2052.09 758.945 2051.97C741.556 2051.91 726.66 2041.79 719.829 2027.97C707.868 2000.88 721.123 1964.59 742.752 1939.83C749.67 1931.71 762.841 1923.72 775.247 1922.03C781.844 1921.07 783.095 1920.59 788.62 1921.04C790.27 1921.13 791.964 1921.84 793.593 1921.74C799.862 1925.89 806.737 1928.16 811.327 1935.12C817.993 1945.57 823.564 1959.56 821.51 1973.73C818.292 1996.44 803.797 2023.83 786.52 2039.21L786.53 2039.18Z" fill="#1F7AE0"/>
<path d="M692.969 1960.37C687.692 1958.42 684.718 1966.47 689.985 1968.44C695.263 1970.39 698.237 1962.34 692.969 1960.37Z" fill="#1F7AE0"/>
<path d="M728.018 1917.01C722.741 1915.06 719.766 1923.11 725.034 1925.09C730.311 1927.04 733.286 1918.99 728.018 1917.01Z" fill="#1F7AE0"/>
<path d="M784.063 1887.99C778.786 1886.04 775.811 1894.09 781.079 1896.06C786.356 1898.01 789.331 1889.96 784.063 1887.99Z" fill="#1F7AE0"/>
<path d="M844.071 1925.51C838.793 1923.56 835.819 1931.61 841.087 1933.59C846.364 1935.54 849.338 1927.49 844.071 1925.51Z" fill="#1F7AE0"/>
<path d="M850.583 1979.12C845.305 1977.17 842.331 1985.22 847.598 1987.19C852.876 1989.14 855.85 1981.09 850.583 1979.12Z" fill="#1F7AE0"/>
<path d="M833.502 2031.31C828.225 2029.36 825.25 2037.41 830.518 2039.39C835.795 2041.34 838.77 2033.29 833.502 2031.31Z" fill="#1F7AE0"/>
<path d="M785.851 2069.27C780.573 2067.32 777.599 2075.37 782.866 2077.35C788.144 2079.3 791.118 2071.25 785.851 2069.27Z" fill="#1F7AE0"/>
<path d="M707.72 2055.04C702.442 2053.09 699.468 2061.14 704.736 2063.12C710.013 2065.07 712.987 2057.01 707.72 2055.04Z" fill="#1F7AE0"/>
<path d="M689.366 2011.7C684.088 2009.75 681.114 2017.8 686.382 2019.77C691.659 2021.72 694.633 2013.67 689.366 2011.7Z" fill="#1F7AE0"/>
<path d="M520.3 2108.86C519.716 2101.67 508.515 2102.62 503.281 2100.83C499.361 2100.1 495.518 2099.1 491.71 2097.97C490.67 2097.69 489.537 2097.84 488.6 2098.37C487.637 2098.9 487.086 2099.81 486.807 2100.82C484.92 2102.13 484.061 2105.55 483.44 2108.11C481.825 2113.58 480.032 2119.01 478.113 2124.4C472.325 2140.78 465.779 2156.85 460.11 2173.29C454.969 2187.12 449.581 2202.74 443.737 2211.2C435.288 2190.85 426.555 2163.3 417.981 2139.83C414.291 2129.35 399.171 2084.66 383.743 2096.12C381.838 2097.89 380.459 2100.13 379.529 2102.52C375.178 2113.38 371.371 2124.44 367.666 2135.53C358.52 2162.04 350.818 2189.05 342.85 2215.94C341.423 2221.03 339.894 2226.09 338.695 2231.24C338.409 2232.28 338.561 2233.41 339.094 2234.35C339.308 2234.76 339.6 2235.09 339.906 2235.36C340.263 2236.74 341.287 2237.98 342.746 2238.33C350.793 2240.7 358.615 2243.7 366.565 2246.43C369.241 2247.42 372.429 2248.32 375.013 2246.66C379.1 2243.5 380.517 2238.05 382.285 2233.41C385.32 2223.96 387.956 2214.38 390.365 2204.73C395.003 2216.42 402.015 2233.57 411.267 2244.16C426.54 2263.8 450.024 2276.4 470.895 2256.45C478.132 2249.87 482.909 2241.23 486.501 2232.24C491.232 2220.69 495.538 2209 499.402 2197.14C507.808 2168.16 515.308 2138.61 520.376 2108.88L520.3 2108.86ZM492.36 2106.72C498.293 2108.65 504.847 2109.11 510.813 2110.73C511.088 2110.72 511.519 2110.84 512.001 2110.97C511.115 2115.28 509.78 2121.33 508.24 2128.21C508.07 2128.14 507.899 2128.06 507.729 2127.99C504.613 2126.72 501.37 2125.72 498.159 2124.7C494.959 2124.04 491.154 2122.5 487.582 2121.9C487.603 2121.83 487.624 2121.75 487.645 2121.68C489.337 2116.71 490.852 2111.7 492.316 2106.68L492.36 2106.72ZM498.362 2170.17C497.346 2169.7 496.298 2169.25 495.425 2168.66C489.271 2165.25 482.905 2162.21 476.638 2159.02C475.919 2158.65 475.177 2158.18 474.426 2157.83C477.946 2148.41 481.447 2138.95 484.872 2129.48C489.285 2130.09 500.418 2133.64 506.464 2135.96C503.897 2147.18 500.971 2159.6 498.337 2170.17L498.362 2170.17ZM372.62 2235.83C372.62 2235.83 372.62 2235.83 372.613 2235.85C372.62 2235.83 372.613 2235.85 372.471 2236.17C371.994 2237.21 371.429 2238.17 370.857 2239.16C369.614 2238.82 367.575 2238.2 366.925 2237.89C360.349 2235.61 353.833 2233.22 347.202 2231.15C349.071 2224.36 351.131 2217.07 353.317 2209.51C360.607 2215.64 367.797 2221.92 375.579 2227.45C374.696 2230.26 373.737 2233.05 372.677 2235.81L372.62 2235.83ZM374.812 2217.14C368.217 2212.17 362.138 2206.4 355.607 2201.39C359.202 2189.01 363.045 2176.13 366.943 2163.65C370.237 2169.82 374.002 2175.76 377.361 2181.9C379.763 2185.86 381.846 2190.09 384.578 2193.84C383.52 2196.79 383.263 2200.1 382.288 2203.05C380.832 2208.54 379.427 2214.05 377.895 2219.52C376.458 2218.5 376.723 2218.62 374.844 2217.13L374.812 2217.14ZM392.143 2187.65C391.916 2188.38 391.637 2189.1 391.333 2189.8C386.992 2183.67 379.602 2169.58 374.123 2160.55C372.848 2158.04 371.548 2155.53 370.273 2153.03C376.736 2132.9 383.207 2114.63 388.755 2102.49C393.988 2105.98 396.858 2111.21 401.141 2119.54C404.665 2127.35 408.036 2136.22 411.365 2145.54C408.581 2150.8 405.766 2157.96 402.1 2165.43C398.756 2172.83 395.147 2180.11 392.143 2187.65ZM405.542 2219.46C402.362 2212.78 399.566 2205.79 396.463 2198.52C396.881 2198.09 397.194 2197.55 397.357 2196.86C400.942 2184.62 406.911 2174.42 412.79 2160.98C413.427 2159.36 414.257 2157.73 415.086 2156.1C418.905 2167.11 422.748 2178.42 426.755 2189.05C426.982 2189.71 427.216 2190.34 427.468 2191.01C426.643 2191.63 425.973 2192.49 425.309 2193.31C422.441 2196.7 419.698 2200.22 417.082 2203.79C413.177 2208.96 409.36 2214.21 405.542 2219.46ZM424.266 2246.49C418.056 2240.6 413.44 2234.18 409.594 2227.34C416.364 2217.8 424.266 2207.02 429.745 2200.29C429.931 2200.01 430.159 2199.77 430.37 2199.5C432.41 2205.58 434.539 2211.62 437.5 2217.31C438.126 2218.11 438.768 2218.75 439.394 2219.25C438.245 2229.08 439.07 2239.07 439.355 2248.94C439.497 2251.6 439.664 2254.27 439.857 2256.94C434.498 2255 429.31 2251.25 424.266 2246.49ZM461.47 2253.53C456.829 2256.91 452.284 2258.37 447.811 2258.36C447.787 2258.06 447.744 2257.72 447.744 2257.42C447.318 2251.93 447.108 2246.44 446.931 2240.94C446.407 2233.62 446.735 2225.09 447.234 2219.31C450.795 2216.58 454.055 2210.57 456.879 2204.18C463.202 2209.05 472.738 2218.11 479.601 2225.29C479.78 2225.53 480.006 2225.7 480.225 2225.9C476.604 2236.09 469.626 2248.27 461.47 2253.53ZM483.317 2217.83C482.224 2216.85 481.141 2215.92 480.412 2214.91C475.191 2209.3 469.368 2204.29 463.446 2199.44C462.297 2198.66 461.202 2197.48 459.997 2196.61C461.885 2191.73 463.464 2187.28 464.616 2184.68C466.892 2178.18 469.278 2171.69 471.681 2165.23C479.365 2169.23 487.162 2173.01 494.74 2177.2C495.26 2177.58 495.815 2177.85 496.392 2178.03L496.378 2178.08C492.859 2191.57 488.275 2204.77 483.324 2217.81L483.317 2217.83Z" fill="#1F7AE0"/>
<path d="M571.001 2707.63C553.841 2701.56 534.496 2699.35 517.492 2707.03C510.851 2709.66 504.43 2712.83 498.009 2716.01C496.325 2716.91 494.169 2717.54 493.508 2719.52C493.419 2719.76 493.413 2720 493.348 2720.23C492.338 2721.28 491.852 2722.83 492.657 2724.62C504.818 2756.17 515.752 2788.12 526.52 2820.14C536.335 2845.92 546.73 2871.84 558.901 2896.49C559.664 2897.26 560.555 2897.57 561.455 2897.58C562.456 2898.18 563.678 2898.39 565.075 2897.73C582.494 2888.1 599.864 2877.26 612.022 2861.17C633.708 2831.15 639.29 2790.11 624.23 2755.99C614.49 2733.09 594.643 2715.22 570.978 2707.64L571.001 2707.63ZM624.632 2800.96C623.387 2827.2 612.858 2851.41 594.531 2868.24C583.912 2877.55 575.764 2882.34 564.071 2888.98C551.274 2860.26 538.513 2831.44 528.658 2801.56C520.412 2775.24 510.598 2749.46 500.971 2723.65C519.551 2714.34 532.611 2707.73 551.75 2711.05C597.813 2718.18 625.98 2754.8 624.608 2800.97L624.632 2800.96Z" fill="#1F7AE0"/>
<path d="M537.055 2751.47C535.429 2751.94 534.595 2753 534.247 2754.17C533.218 2755.05 532.587 2756.35 532.874 2757.84C537.207 2772.74 543.734 2786.91 548.763 2801.57C553.741 2813.78 556.418 2827.24 562.252 2838.93C563.469 2840.18 565.36 2840.28 566.853 2839.52C567.121 2839.54 567.39 2839.56 567.672 2839.49C569.355 2839.08 570.813 2837.88 572.242 2836.92C581.422 2830.27 590.309 2822.75 595.83 2812.65C602.55 2800.54 602.994 2785.37 598.551 2772.39C588.948 2745.27 561.147 2741.5 537.09 2751.48L537.055 2751.47ZM588.505 2809C582.811 2818.61 576.528 2823.62 567.215 2830.42C559.846 2808.45 552.289 2786.52 543.598 2765.06C542.504 2761.85 541.888 2759.97 541.438 2758.45C555.137 2752.84 573.8 2753.03 582.318 2761.83C595.354 2774.32 596.004 2795.78 588.505 2809Z" fill="#1F7AE0"/>
<path d="M600.94 2823.84C599.412 2825.45 598.825 2827.71 597.825 2829.71C595.112 2834.95 591.846 2839.88 588.077 2844.41C584.583 2848.72 582.192 2851.13 576.554 2855.61C574.8 2857.35 572.066 2858.17 570.781 2860.29C568.577 2864.03 573.819 2868.16 577.019 2865.25C587.75 2858.28 596.421 2848.38 602.878 2837.38C604.459 2834.65 605.845 2831.82 607.127 2828.94C607.742 2827.79 607.838 2826.39 607.262 2825.21C606.204 2822.83 602.903 2822.12 600.94 2823.84Z" fill="#1F7AE0"/>
<path d="M525.695 2732.76C522.633 2735.77 526.592 2741.1 530.409 2739.15C533.308 2738.26 542.331 2735.72 548.763 2735.17C551.686 2734.7 552.823 2735.46 557.429 2735.01C558.475 2734.78 559.397 2733.98 559.809 2733.01C565.088 2721.03 529.603 2729.58 525.683 2732.73L525.695 2732.76Z" fill="#1F7AE0"/>
<path d="M608.592 2760.67C605.566 2757.58 600.245 2761.57 602.199 2765.38C603.71 2768.74 604.44 2774.63 609.534 2772.57C612.588 2771.15 612.026 2767.72 610.843 2765.18C610.218 2763.66 609.883 2761.77 608.581 2760.65L608.592 2760.67Z" fill="#1F7AE0"/>
<path d="M512.085 396.039C508.375 385.898 502.081 376.211 492.144 371.332C488.429 369.29 484.552 367.55 480.676 365.81C479.628 365.38 478.524 364.632 477.368 365.078C477.223 365.13 477.114 365.215 476.984 365.273C476.122 365.207 475.228 365.572 474.715 366.615C464.875 384.097 454.388 401.169 443.804 418.195C435.716 432.425 427.787 446.971 421.106 461.853C421.042 462.492 421.24 463.015 421.574 463.431C421.677 464.116 422.044 464.753 422.87 465.146C433.856 469.477 445.381 473.326 457.333 472.812C479.259 471.393 500.145 458.442 510.065 438.663C516.864 425.554 517.543 409.724 512.071 396.033L512.085 396.039ZM489.644 455.835C477.167 465.18 462.115 469.507 447.491 467.481C439.22 466.14 433.953 464.219 426.498 461.378C434.801 444.675 443.165 427.95 453.115 412.151C462.038 398.438 470.126 384.208 478.299 370.053C489.576 375.037 497.536 378.513 503.247 388.524C517.385 412.292 511.272 439.014 489.63 455.828L489.644 455.835Z" fill="#1F7AE0"/>
<path d="M479.201 397.074C478.371 396.508 477.574 396.523 476.907 396.807C476.114 396.67 475.279 396.874 474.71 397.565C469.528 405.177 465.512 413.516 460.702 421.357C456.997 428.247 451.852 434.555 448.705 441.642C448.594 442.67 449.264 443.572 450.173 443.97C450.266 444.1 450.359 444.23 450.499 444.331C451.323 444.946 452.423 445.16 453.399 445.453C459.909 447.14 466.709 448.365 473.416 447.074C481.493 445.576 488.602 440.047 492.861 433.111C501.641 418.472 492.866 404.327 479.208 397.094L479.201 397.074ZM472.317 442.346C465.77 443.37 461.105 442.388 454.477 440.695C461.742 429.026 468.922 417.283 475.458 405.199C476.512 403.486 477.138 402.496 477.663 401.715C485.408 405.861 492.367 414.475 491.56 421.695C490.773 432.376 481.197 440.783 472.317 442.346Z" fill="#1F7AE0"/>
<path d="M470.225 453.639C468.913 453.548 467.656 454.134 466.365 454.43C462.94 455.171 459.452 455.538 455.957 455.524C452.664 455.555 450.656 455.372 446.478 454.484C445.019 454.34 443.613 453.397 442.155 453.613C439.611 454.017 439.703 457.975 442.241 458.341C449.484 460.617 457.29 460.844 464.762 459.642C466.608 459.335 468.43 458.897 470.229 458.396C470.989 458.243 471.666 457.758 471.985 457.051C472.679 455.664 471.756 453.887 470.225 453.639Z" fill="#1F7AE0"/>
<path d="M483.472 384.804C480.936 384.542 479.992 388.368 482.328 389.376C483.832 390.365 488.402 393.534 491.084 396.268C492.404 397.428 492.483 398.238 494.428 400.175C494.928 400.568 495.645 400.685 496.244 400.507C503.719 398.396 486.403 385.391 483.479 384.79L483.472 384.804Z" fill="#1F7AE0"/>
<path d="M502.016 433.276C502.285 430.726 498.453 429.797 497.445 432.133C496.478 434.093 494.06 436.652 496.927 438.204C498.733 439.062 500.089 437.51 500.802 436.012C501.263 435.15 502.002 434.282 502.023 433.262L502.016 433.276Z" fill="#1F7AE0"/>
<path d="M433.889 774.746C430.179 764.605 423.885 754.917 413.948 750.038C410.233 747.997 406.357 746.257 402.481 744.517C401.432 744.087 400.328 743.339 399.172 743.785C399.028 743.836 398.918 743.922 398.788 743.98C397.927 743.914 397.032 744.278 396.519 745.321C386.679 762.804 376.192 779.876 365.608 796.901C357.52 811.131 349.591 825.677 342.91 840.559C342.846 841.198 343.044 841.721 343.378 842.138C343.482 842.822 343.848 843.46 344.674 843.853C355.661 848.184 367.185 852.033 379.137 851.519C401.063 850.1 421.95 837.149 431.869 817.37C438.669 804.261 439.347 788.43 433.875 774.739L433.889 774.746ZM411.448 834.542C398.971 843.887 383.919 848.214 369.296 846.187C361.024 844.846 355.758 842.926 348.302 840.085C356.605 823.382 364.969 806.657 374.919 790.857C383.842 777.145 391.93 762.915 400.103 748.759C411.38 753.744 419.34 757.22 425.051 767.231C439.19 790.999 433.076 817.72 411.434 834.535L411.448 834.542Z" fill="#1F7AE0"/>
<path d="M401.005 775.78C400.175 775.214 399.378 775.23 398.711 775.513C397.918 775.376 397.083 775.58 396.514 776.271C391.332 783.884 387.316 792.222 382.506 800.063C378.801 806.953 373.656 813.261 370.51 820.348C370.398 821.376 371.068 822.278 371.977 822.677C372.07 822.806 372.163 822.936 372.303 823.038C373.127 823.652 374.227 823.866 375.203 824.159C381.714 825.847 388.513 827.071 395.22 825.78C403.297 824.282 410.406 818.753 414.665 811.818C423.445 797.179 414.671 783.033 401.012 775.801L401.005 775.78ZM394.121 821.052C387.575 822.076 382.909 821.094 376.281 819.401C383.546 807.733 390.726 795.989 397.262 783.905C398.316 782.192 398.942 781.202 399.467 780.422C407.212 784.568 414.171 793.181 413.364 800.402C412.577 811.082 403.001 819.489 394.121 821.052Z" fill="#1F7AE0"/>
<path d="M392.03 832.346C390.717 832.254 389.46 832.84 388.169 833.136C384.744 833.877 381.257 834.244 377.761 834.23C374.468 834.261 372.46 834.079 368.282 833.191C366.823 833.046 365.418 832.103 363.959 832.319C361.415 832.723 361.507 836.681 364.045 837.047C371.288 839.323 379.094 839.55 386.566 838.348C388.412 838.041 390.234 837.603 392.034 837.103C392.793 836.949 393.47 836.464 393.789 835.757C394.483 834.371 393.56 832.593 392.03 832.346Z" fill="#1F7AE0"/>
<path d="M405.276 763.51C402.74 763.248 401.797 767.074 404.133 768.082C405.636 769.071 410.206 772.24 412.889 774.975C414.208 776.134 414.287 776.944 416.232 778.882C416.732 779.274 417.449 779.392 418.049 779.213C425.524 777.103 408.207 764.097 405.283 763.496L405.276 763.51Z" fill="#1F7AE0"/>
<path d="M423.821 811.983C424.089 809.433 420.257 808.503 419.249 810.839C418.282 812.8 415.864 815.358 418.731 816.91C420.537 817.769 421.893 816.216 422.606 814.718C423.067 813.856 423.806 812.989 423.827 811.969L423.821 811.983Z" fill="#1F7AE0"/>
<path d="M815.225 309.252C811.515 299.111 805.221 289.424 795.285 284.545C791.569 282.503 787.693 280.763 783.817 279.023C782.768 278.593 781.665 277.846 780.509 278.292C780.364 278.343 780.255 278.428 780.124 278.486C779.263 278.42 778.369 278.785 777.855 279.828C768.015 297.31 757.529 314.382 746.944 331.408C738.857 345.638 730.927 360.184 724.246 375.066C724.183 375.705 724.38 376.228 724.714 376.644C724.818 377.329 725.184 377.966 726.01 378.359C736.997 382.691 748.522 386.54 760.474 386.026C782.4 384.607 803.286 371.655 813.206 351.876C820.005 338.767 820.683 322.937 815.211 309.246L815.225 309.252ZM792.784 369.048C780.307 378.393 765.255 382.72 750.632 380.694C742.361 379.353 737.094 377.432 729.639 374.591C737.941 357.888 746.306 341.163 756.255 325.364C765.179 311.651 773.267 297.421 781.439 283.266C792.716 288.25 800.676 291.726 806.388 301.737C820.526 325.505 814.412 352.227 792.77 369.041L792.784 369.048Z" fill="#1F7AE0"/>
<path d="M782.341 310.287C781.512 309.721 780.715 309.736 780.048 310.02C779.254 309.883 778.419 310.087 777.851 310.778C772.669 318.39 768.653 326.729 763.843 334.57C760.138 341.46 754.993 347.768 751.846 354.855C751.735 355.883 752.404 356.785 753.314 357.183C753.406 357.313 753.499 357.443 753.64 357.544C754.463 358.159 755.563 358.373 756.54 358.666C763.05 360.354 769.849 361.578 776.557 360.287C784.633 358.789 791.743 353.26 796.002 346.324C804.782 331.685 796.007 317.54 782.349 310.307L782.341 310.287ZM775.458 355.559C768.911 356.583 764.246 355.601 757.617 353.908C764.882 342.239 772.063 330.496 778.598 318.412C779.653 316.699 780.278 315.709 780.804 314.929C788.548 319.074 795.508 327.688 794.701 334.909C793.914 345.589 784.337 353.996 775.458 355.559Z" fill="#1F7AE0"/>
<path d="M773.366 366.853C772.054 366.761 770.796 367.347 769.505 367.643C766.081 368.384 762.593 368.751 759.098 368.737C755.805 368.768 753.797 368.586 749.619 367.697C748.16 367.553 746.754 366.61 745.295 366.826C742.751 367.23 742.844 371.188 745.382 371.554C752.625 373.83 760.431 374.057 767.903 372.855C769.748 372.548 771.57 372.11 773.37 371.61C774.13 371.456 774.807 370.971 775.126 370.264C775.819 368.877 774.896 367.1 773.366 366.853Z" fill="#1F7AE0"/>
<path d="M786.613 298.017C784.077 297.755 783.133 301.581 785.469 302.589C786.973 303.578 791.543 306.747 794.225 309.481C795.545 310.641 795.623 311.451 797.569 313.389C798.069 313.781 798.785 313.898 799.385 313.72C806.86 311.61 789.544 298.604 786.62 298.003L786.613 298.017Z" fill="#1F7AE0"/>
<path d="M805.157 346.49C805.426 343.939 801.593 343.01 800.585 345.346C799.619 347.307 797.201 349.865 800.068 351.417C801.874 352.275 803.23 350.723 803.942 349.225C804.404 348.363 805.142 347.495 805.164 346.476L805.157 346.49Z" fill="#1F7AE0"/>
<path d="M1280.72 719.518C1277.01 709.377 1270.72 699.689 1260.78 694.81C1257.06 692.769 1253.19 691.029 1249.31 689.289C1248.26 688.859 1247.16 688.111 1246 688.557C1245.86 688.608 1245.75 688.694 1245.62 688.752C1244.76 688.686 1243.86 689.05 1243.35 690.093C1233.51 707.576 1223.02 724.648 1212.44 741.673C1204.35 755.903 1196.42 770.449 1189.74 785.331C1189.68 785.97 1189.87 786.493 1190.21 786.91C1190.31 787.594 1190.68 788.232 1191.5 788.625C1202.49 792.956 1214.02 796.805 1225.97 796.291C1247.89 794.872 1268.78 781.921 1278.7 762.142C1285.5 749.033 1286.18 733.202 1280.7 719.511L1280.72 719.518ZM1258.28 779.313C1245.8 788.659 1230.75 792.986 1216.13 790.959C1207.85 789.618 1202.59 787.698 1195.13 784.857C1203.43 768.154 1211.8 751.429 1221.75 735.629C1230.67 721.917 1238.76 707.687 1246.93 693.531C1258.21 698.516 1266.17 701.991 1271.88 712.003C1286.02 735.771 1279.91 762.492 1258.26 779.307L1258.28 779.313Z" fill="#1F7AE0"/>
<path d="M1247.83 720.552C1247.01 719.986 1246.21 720.002 1245.54 720.285C1244.75 720.149 1243.91 720.352 1243.34 721.043C1238.16 728.656 1234.15 736.994 1229.34 744.835C1225.63 751.725 1220.49 758.033 1217.34 765.12C1217.23 766.149 1217.9 767.051 1218.81 767.449C1218.9 767.579 1218.99 767.709 1219.13 767.81C1219.96 768.424 1221.06 768.638 1222.03 768.931C1228.54 770.619 1235.34 771.843 1242.05 770.553C1250.13 769.054 1257.24 763.525 1261.5 756.59C1270.28 741.951 1261.5 727.805 1247.84 720.573L1247.83 720.552ZM1240.95 765.824C1234.4 766.848 1229.74 765.866 1223.11 764.174C1230.38 752.505 1237.56 740.761 1244.09 728.677C1245.15 726.964 1245.77 725.974 1246.3 725.194C1254.04 729.34 1261 737.953 1260.19 745.174C1259.41 755.855 1249.83 764.262 1240.95 765.824Z" fill="#1F7AE0"/>
<path d="M1238.86 777.118C1237.55 777.026 1236.29 777.613 1235 777.909C1231.57 778.649 1228.09 779.016 1224.59 779.002C1221.3 779.033 1219.29 778.851 1215.11 777.963C1213.65 777.818 1212.25 776.875 1210.79 777.092C1208.24 777.496 1208.34 781.453 1210.88 781.819C1218.12 784.096 1225.92 784.322 1233.4 783.12C1235.24 782.813 1237.06 782.375 1238.86 781.875C1239.62 781.721 1240.3 781.236 1240.62 780.53C1241.31 779.143 1240.39 777.365 1238.86 777.118Z" fill="#1F7AE0"/>
<path d="M1252.11 708.282C1249.57 708.021 1248.63 711.846 1250.96 712.854C1252.47 713.844 1257.04 717.012 1259.72 719.747C1261.04 720.906 1261.12 721.716 1263.06 723.654C1263.56 724.046 1264.28 724.164 1264.88 723.985C1272.35 721.875 1255.04 708.869 1252.11 708.268L1252.11 708.282Z" fill="#1F7AE0"/>
<path d="M1270.65 756.755C1270.92 754.205 1267.09 753.275 1266.08 755.611C1265.11 757.572 1262.69 760.13 1265.56 761.682C1267.37 762.541 1268.72 760.988 1269.44 759.49C1269.9 758.628 1270.64 757.761 1270.66 756.741L1270.65 756.755Z" fill="#1F7AE0"/>
<path d="M115.744 1784.78C114.06 1778.28 109.905 1767.34 108.669 1764.61C107.88 1761.79 105.724 1758.82 102.436 1759.51C97.5446 1760.53 92.916 1762.64 87.9718 1763.53C87.6299 1763.61 87.288 1763.66 86.9461 1763.74C86.1571 1763.4 85.263 1763.29 84.3425 1763.58C65.1179 1768.37 45.604 1772.02 26.6423 1777.81C21.0669 1779.6 15.3338 1781.12 10.1528 1783.89C8.39081 1784.83 6.99695 1786.59 7.02325 1788.67C7.89112 1796.33 9.62683 1803.85 11.0207 1811.42C11.8097 1815.55 12.5197 1820.97 17.3588 1822.15C25.38 1823.12 33.3223 1820.07 41.0542 1818.28C51.8369 1815.16 69.5887 1810.92 77.7677 1807.74C81.2129 1819.97 81.5548 1828.15 82.6331 1841.48C83.4746 1856.52 83.3168 1866.23 78.5567 1879.96C74.5066 1894.66 57.6227 1898.84 50.4956 1890C45.6829 1883.32 43.7104 1879.17 41.5802 1873.04C39.7129 1868.49 39.6341 1860.76 33.033 1861.05C26.5897 1861.49 20.3569 1863.39 14.2555 1865.41C10.8366 1866.54 6.62876 1867.78 5.86609 1871.83C4.52484 1877.38 5.68201 1883.19 6.70768 1888.71C8.73271 1899.6 13.6769 1909.6 20.3042 1918.41C42.3955 1947.91 90.8121 1937.58 109.853 1909.67C117.295 1899.84 120.477 1887.61 122.765 1875.7C129.288 1845.53 123.528 1814.21 115.77 1784.81L115.744 1784.78ZM114.955 1872.99C111.404 1894.66 103.225 1910.44 86.762 1919.83C70.4829 1929.45 50.6797 1931.24 34.9792 1921.48C29.2197 1917.7 22.0137 1907.83 17.5166 1897.39C16.2542 1894.08 12.3093 1877.41 13.5717 1874.8C13.598 1874.64 13.6769 1874.49 13.7032 1874.3C18.3845 1872.54 23.1709 1871.07 28.0362 1870.02C30.5609 1869.57 31.0606 1869.36 31.7969 1869.31C35.7681 1881.72 40.7386 1897.05 53.9408 1901.81C67.5374 1906.02 81.8704 1896.79 85.8941 1883.59C94.4413 1860.84 91.1013 1835.77 87.3669 1812.37C86.0519 1807.77 85.8416 1800.87 80.6081 1799.06C79.0827 1798.67 77.5837 1799.06 76.1635 1799.64C69.878 1801.77 63.5136 1803.69 57.0704 1805.4C45.5777 1808.5 25.0644 1814.29 20.0676 1814.29C18.1477 1806.66 16.3068 1796.17 15.4389 1790.43C30.219 1783.89 53.8882 1779.23 72.4553 1774.76C76.6895 1773.76 80.8973 1772.73 85.1314 1771.76C85.2629 1771.81 85.3682 1771.89 85.526 1771.92C90.8647 1772 96.0719 1769.79 101.227 1768.21C112.114 1794.88 122.082 1841.53 114.876 1872.99H114.955Z" fill="#1F7AE0"/>
<path d="M90.1554 1778.55C76.6639 1780.44 63.5408 1784.18 50.6805 1788.62C44.0269 1791.2 35.5322 1792.86 29.8253 1796.99C27.0902 1800.17 31.3769 1805.03 34.9273 1802.77C43.3693 1798.98 58.5176 1794.22 70.51 1790.62C77.2162 1788.83 88.9456 1786.49 92.3119 1786.15C92.3645 1786.15 92.4171 1786.15 92.4697 1786.18C94.3895 1786.57 96.283 1785.18 96.809 1783.36C97.8347 1779.44 93.4691 1777.47 90.208 1778.52L90.1554 1778.55Z" fill="#1F7AE0"/>
<path d="M104.751 1801.74C104.751 1796.61 96.8871 1796.59 96.8608 1801.74C98.807 1820.39 101.858 1838.27 99.8589 1859.05C99.7274 1862.44 104.277 1864.31 106.591 1861.83C107.985 1860.47 107.749 1858.47 107.985 1856.68C109.537 1837.85 106.407 1817.26 104.724 1801.74H104.751Z" fill="#1F7AE0"/>
<path d="M94.8631 1884.61C92.917 1890.48 88.5777 1896.87 83.7913 1901.84C80.9247 1904.55 83.8701 1909.57 87.6309 1908.44C90.892 1906.97 92.7592 1903.34 94.9946 1900.68C98.0716 1896.37 100.912 1891.79 102.464 1886.72C103.805 1881.75 96.257 1879.67 94.8631 1884.61Z" fill="#1F7AE0"/>
<path d="M36.0315 1902.55C34.0591 1898.73 34.0591 1899.21 33.2702 1896.13C31.8763 1891.16 24.3284 1893.26 25.6697 1898.23C26.8532 1902.49 28.8519 1906.86 31.9026 1910.07C33.9276 1911.88 37.478 1910.62 38.1092 1908.02C38.793 1905.83 37.0835 1904.26 36.0315 1902.55Z" fill="#1F7AE0"/>
<path d="M213.39 80.0051C214.81 73.4807 216.03 61.8996 216.159 58.9158C216.722 56.0626 216.14 52.4555 212.914 51.5875C208.109 50.3032 203.054 50.0945 198.262 48.6698C197.923 48.5865 197.595 48.4797 197.256 48.3964C196.709 47.7387 195.962 47.244 195.015 47.0878C175.793 42.7113 156.822 37.2006 137.386 33.8296C131.631 32.9158 125.855 31.6976 120.015 31.825C118.025 31.8751 115.996 32.8145 115.087 34.6714C112.424 41.8577 110.59 49.3166 108.428 56.6688C107.276 60.6899 105.476 65.8199 109.242 69.0426C115.929 73.5065 124.352 74.3614 132.021 76.243C143.002 78.3025 160.668 82.5086 169.36 83.353C166.931 95.7599 163.565 103.177 158.539 115.503C152.535 129.241 148.04 137.788 137.652 147.844C127.457 159.083 110.586 155.22 108.222 144.173C106.945 136.081 107.058 131.506 107.916 125.107C108.3 120.229 111.699 113.327 105.707 110.621C99.7841 108.127 93.3989 107.011 87.0714 106.072C83.5275 105.542 79.2357 104.751 76.7409 108.006C73.0594 112.332 71.4788 118.013 69.9113 123.378C66.8236 133.957 66.7297 145.051 68.6618 155.85C75.0393 191.97 122.677 204.518 152.109 188.282C163.133 182.886 171.448 173.454 178.826 163.9C198.156 140.037 207.097 109.635 213.402 80.0403L213.39 80.0051ZM173.105 157.989C160.227 175.642 145.881 185.985 127.047 186.935C108.269 188.178 89.8792 180.879 80.314 165.168C76.8984 159.22 74.9245 147.227 75.616 135.937C75.982 132.427 79.9611 115.849 82.2507 114.103C82.3448 113.975 82.4858 113.87 82.5917 113.718C87.54 114.254 92.4517 115.094 97.2448 116.343C99.6877 117.079 100.226 117.117 100.903 117.4C98.8596 130.207 96.3933 146.054 105.982 156.207C116.169 166.045 133.041 164.28 142.539 154.36C160.339 137.993 168.62 114.235 175.808 91.7715C176.705 87.094 179.611 80.8802 175.777 76.9199C174.599 75.8851 173.091 75.5627 171.57 75.4392C165.032 74.5104 158.518 73.3592 152.029 71.9859C140.429 69.5844 119.614 65.5171 115.177 63.2746C116.894 55.6397 119.968 45.4942 121.771 40.013C137.836 40.8301 160.946 47.318 179.442 51.6798C183.651 52.6924 187.848 53.6698 192.045 54.7057C192.138 54.8115 192.196 54.9288 192.325 55.023C197.031 57.4889 202.647 57.8638 207.933 58.7757C205.635 87.3454 193.55 133.253 173.035 157.954L173.105 157.989Z" fill="#1F7AE0"/>
<path d="M193.46 62.9927C180.628 58.6199 167.298 56.0472 153.882 54.2231C146.816 53.5261 138.528 51.1855 131.607 52.2914C127.75 53.8901 129.373 60.1348 133.541 59.7194C142.738 60.1446 158.328 62.7152 170.595 64.8971C177.354 66.3184 188.821 69.5035 191.965 70.7105C192.011 70.7341 192.058 70.7578 192.093 70.8047C193.621 72.0166 195.928 71.6285 197.209 70.2529C199.879 67.2331 196.887 63.5222 193.519 62.993L193.46 62.9927Z" fill="#1F7AE0"/>
<path d="M196.015 90.1309C198.317 85.5763 191.345 82.0241 189.008 86.5902C182.369 104.023 177.053 121.275 165.954 138.83C164.315 141.784 167.517 145.484 170.682 144.327C172.534 143.738 173.22 141.856 174.233 140.374C184.062 124.347 190.523 104.655 195.992 90.1191L196.015 90.1309Z" fill="#1F7AE0"/>
<path d="M150.045 159.295C145.685 163.63 138.963 167.358 132.481 169.625C128.72 170.744 129.082 176.527 132.929 177.21C136.486 177.366 139.773 174.98 142.95 173.625C147.619 171.175 152.195 168.386 155.851 164.574C159.273 160.762 153.502 155.529 150.045 159.295Z" fill="#1F7AE0"/>
<path d="M89.7464 148.827C89.7059 144.555 89.4935 144.975 90.1737 141.888C91.1664 136.848 83.5189 135.33 82.4794 140.346C81.6185 144.661 81.4344 149.435 82.7039 153.654C83.688 156.174 87.4077 156.646 89.1367 154.617C90.7235 152.985 89.9135 150.817 89.7464 148.827Z" fill="#1F7AE0"/>
<path d="M1087.92 484.469C1089.34 477.944 1090.56 466.363 1090.69 463.379C1091.25 460.526 1090.67 456.919 1087.45 456.051C1082.64 454.767 1077.59 454.558 1072.79 453.133C1072.45 453.05 1072.13 452.943 1071.79 452.86C1071.24 452.202 1070.49 451.708 1069.55 451.551C1050.33 447.175 1031.35 441.664 1011.92 438.293C1006.16 437.379 1000.39 436.161 994.547 436.289C992.557 436.339 990.528 437.278 989.619 439.135C986.956 446.321 985.122 453.78 982.961 461.132C981.808 465.153 980.008 470.284 983.774 473.506C990.461 477.97 998.884 478.825 1006.55 480.707C1017.53 482.766 1035.2 486.972 1043.89 487.817C1041.46 500.224 1038.1 507.641 1033.07 519.967C1027.07 533.704 1022.57 542.252 1012.18 552.308C1001.99 563.547 985.118 559.683 982.754 548.637C981.477 540.545 981.59 535.969 982.448 529.571C982.832 524.692 986.232 517.79 980.239 515.085C974.316 512.59 967.931 511.475 961.604 510.535C958.06 510.005 953.768 509.215 951.273 512.469C947.592 516.796 946.011 522.477 944.443 527.842C941.356 538.42 941.262 549.515 943.194 560.313C949.571 596.433 997.209 608.982 1026.64 592.745C1037.67 587.35 1045.98 577.917 1053.36 568.364C1072.69 544.501 1081.63 514.098 1087.93 484.504L1087.92 484.469ZM1047.64 562.453C1034.76 580.105 1020.41 590.449 1001.58 591.399C982.802 592.642 964.411 585.343 954.846 569.632C951.431 563.684 949.457 551.691 950.148 540.4C950.514 536.891 954.493 520.312 956.783 518.567C956.877 518.438 957.018 518.334 957.124 518.182C962.072 518.718 966.984 519.558 971.777 520.807C974.22 521.543 974.758 521.58 975.436 521.864C973.392 534.671 970.926 550.518 980.514 560.67C990.701 570.509 1007.57 568.743 1017.07 558.824C1034.87 542.456 1043.15 518.698 1050.34 496.235C1051.24 491.558 1054.14 485.344 1050.31 481.384C1049.13 480.349 1047.62 480.026 1046.1 479.903C1039.56 478.974 1033.05 477.823 1026.56 476.449C1014.96 474.048 994.147 469.981 989.709 467.738C991.427 460.103 994.501 449.958 996.303 444.477C1012.37 445.294 1035.48 451.782 1053.97 456.143C1058.18 457.156 1062.38 458.133 1066.58 459.169C1066.67 459.275 1066.73 459.392 1066.86 459.487C1071.56 461.953 1077.18 462.327 1082.46 463.239C1080.17 491.809 1068.08 537.717 1047.57 562.417L1047.64 562.453Z" fill="#1F7AE0"/>
<path d="M1067.99 467.455C1055.16 463.083 1041.83 460.51 1028.41 458.686C1021.35 457.989 1013.06 455.648 1006.14 456.754C1002.28 458.353 1003.91 464.597 1008.07 464.182C1017.27 464.607 1032.86 467.178 1045.13 469.36C1051.89 470.781 1063.35 473.966 1066.5 475.173C1066.54 475.197 1066.59 475.22 1066.63 475.267C1068.15 476.479 1070.46 476.091 1071.74 474.716C1074.41 471.696 1071.42 467.985 1068.05 467.456L1067.99 467.455Z" fill="#1F7AE0"/>
<path d="M1070.55 494.594C1072.85 490.04 1065.88 486.487 1063.54 491.054C1056.9 508.487 1051.59 525.738 1040.49 543.293C1038.85 546.247 1042.05 549.947 1045.21 548.79C1047.07 548.201 1047.75 546.32 1048.77 544.838C1058.59 528.811 1065.06 509.118 1070.52 494.582L1070.55 494.594Z" fill="#1F7AE0"/>
<path d="M1024.58 563.758C1020.22 568.093 1013.5 571.822 1007.01 574.088C1003.25 575.207 1003.61 580.99 1007.46 581.674C1011.02 581.829 1014.31 579.444 1017.48 578.088C1022.15 575.638 1026.73 572.849 1030.38 569.038C1033.81 565.225 1028.03 559.993 1024.58 563.758Z" fill="#1F7AE0"/>
<path d="M964.279 553.29C964.239 549.018 964.026 549.439 964.706 546.352C965.699 541.312 958.052 539.793 957.012 544.809C956.151 549.124 955.967 553.898 957.237 558.117C958.221 560.637 961.94 561.11 963.669 559.081C965.256 557.449 964.446 555.28 964.279 553.29Z" fill="#1F7AE0"/>
<path d="M1261.24 2749.71C1262.8 2741.06 1263.87 2725.77 1263.91 2721.83C1264.51 2718.05 1263.58 2713.34 1259.3 2712.34C1252.92 2710.88 1246.26 2710.83 1239.89 2709.18C1239.44 2709.09 1239 2708.96 1238.55 2708.87C1237.8 2708.03 1236.8 2707.41 1235.55 2707.25C1210.06 2702.38 1184.85 2696 1159.12 2692.47C1151.51 2691.53 1143.85 2690.19 1136.18 2690.63C1133.56 2690.79 1130.94 2692.12 1129.83 2694.6C1126.65 2704.18 1124.58 2714.08 1122.08 2723.85C1120.75 2729.19 1118.62 2736.02 1123.72 2740.09C1132.72 2745.65 1143.84 2746.39 1154.02 2748.51C1168.56 2750.71 1191.99 2755.43 1203.47 2756.14C1200.85 2772.57 1196.76 2782.49 1190.71 2798.93C1183.45 2817.28 1177.93 2828.74 1164.73 2842.44C1151.84 2857.7 1129.46 2853.39 1125.84 2838.97C1123.79 2828.38 1123.73 2822.36 1124.56 2813.9C1124.84 2807.47 1129 2798.23 1120.99 2794.95C1113.08 2791.94 1104.63 2790.77 1096.26 2789.82C1091.58 2789.29 1085.89 2788.45 1082.76 2792.84C1078.12 2798.7 1076.3 2806.25 1074.49 2813.38C1070.91 2827.44 1071.3 2842.04 1074.34 2856.16C1084.4 2903.38 1147.64 2917.69 1185.61 2894.97C1199.87 2887.37 1210.37 2874.57 1219.64 2861.67C1243.96 2829.38 1254.32 2788.97 1261.25 2749.75L1261.24 2749.71ZM1211.84 2854.15C1195.71 2877.97 1177.31 2892.24 1152.58 2894.36C1127.94 2896.86 1103.41 2888.11 1090.1 2867.88C1085.33 2860.21 1082.18 2844.52 1082.57 2829.64C1082.89 2825.01 1087.36 2803.01 1090.29 2800.61C1090.41 2800.44 1090.59 2800.29 1090.72 2800.09C1097.26 2800.57 1103.76 2801.44 1110.12 2802.87C1113.37 2803.72 1114.08 2803.75 1114.98 2804.09C1112.88 2821.03 1110.37 2841.99 1123.45 2854.9C1137.31 2867.38 1159.42 2864.28 1171.46 2850.79C1194.12 2828.44 1203.92 2796.8 1212.34 2766.92C1213.3 2760.72 1216.84 2752.41 1211.61 2747.38C1210.02 2746.07 1208.02 2745.72 1206.01 2745.63C1197.37 2744.71 1188.74 2743.49 1180.14 2741.99C1164.77 2739.36 1137.2 2734.97 1131.26 2732.23C1133.17 2722.1 1136.75 2708.61 1138.86 2701.32C1160.04 2701.65 1190.74 2709.12 1215.27 2714.01C1220.85 2715.15 1226.42 2716.24 1231.99 2717.41C1232.12 2717.54 1232.2 2717.69 1232.37 2717.81C1238.68 2720.84 1246.08 2721.07 1253.08 2722.03C1251.37 2759.72 1237.59 2820.67 1211.74 2854.11L1211.84 2854.15Z" fill="#1F7AE0"/>
<path d="M1234.23 2728.24C1217.15 2723.08 1199.5 2720.31 1181.76 2718.53C1172.43 2717.94 1161.42 2715.24 1152.37 2717.01C1147.37 2719.3 1149.79 2727.44 1155.26 2726.7C1167.38 2726.83 1188 2729.49 1204.24 2731.8C1213.2 2733.36 1228.43 2737.02 1232.62 2738.46C1232.68 2738.49 1232.75 2738.52 1232.79 2738.58C1234.86 2740.1 1237.88 2739.49 1239.5 2737.62C1242.87 2733.52 1238.77 2728.78 1234.31 2728.24L1234.23 2728.24Z" fill="#1F7AE0"/>
<path d="M1238.85 2763.83C1241.66 2757.73 1232.33 2753.38 1229.46 2759.5C1221.53 2782.74 1215.34 2805.68 1201.55 2829.28C1199.53 2833.24 1203.91 2837.96 1208.02 2836.3C1210.43 2835.44 1211.24 2832.93 1212.51 2830.93C1224.7 2809.4 1232.29 2783.19 1238.81 2763.82L1238.85 2763.83Z" fill="#1F7AE0"/>
<path d="M1181.56 2856.94C1176.02 2862.84 1167.35 2868.06 1158.93 2871.34C1154.03 2872.98 1154.78 2880.58 1159.87 2881.3C1164.56 2881.34 1168.77 2878.05 1172.89 2876.12C1178.92 2872.68 1184.81 2868.8 1189.44 2863.62C1193.77 2858.44 1185.93 2851.83 1181.56 2856.94Z" fill="#1F7AE0"/>
<path d="M1101.75 2845.94C1101.5 2840.32 1101.24 2840.89 1102 2836.79C1103.07 2830.12 1092.94 2828.47 1091.8 2835.12C1090.87 2840.84 1090.85 2847.12 1092.71 2852.62C1094.12 2855.89 1099.04 2856.34 1101.22 2853.59C1103.23 2851.37 1102.07 2848.55 1101.75 2845.94Z" fill="#1F7AE0"/>
<path d="M1193.35 1683.08C1190.61 1680.72 1191.12 1681.3 1189.7 1679.59C1189.7 1679.59 1189.72 1679.58 1189.75 1679.57C1200.38 1672.23 1209.7 1663.22 1216.93 1652.44C1221.56 1645.78 1226.6 1639.16 1228.93 1631.28C1238.03 1605.2 1217.63 1581.24 1194.66 1571.45C1162.64 1557.67 1127.25 1576.02 1104.19 1598.56C1099.23 1603.39 1094.69 1608.62 1090.23 1613.87C1089.13 1614.98 1088.21 1616.35 1088.44 1617.94C1087.27 1619.08 1086.67 1620.82 1087.45 1622.49C1108 1683.86 1133.77 1743.63 1159.47 1802.86C1160.06 1803.49 1160.75 1803.77 1161.47 1803.92C1162.1 1804.65 1162.92 1805.21 1163.94 1805.31C1174.77 1802.35 1185.35 1797.38 1196.01 1793.55C1198.33 1792.55 1200.96 1791.41 1201.88 1788.89C1202.79 1786.35 1201.53 1783.77 1200.55 1781.45C1193.81 1765.71 1186.74 1750.08 1180.88 1733.99C1180.72 1733.49 1180.59 1733.06 1180.44 1732.64C1183.39 1734.89 1186.76 1737.44 1189.1 1738.89C1201 1747.07 1213.31 1754.68 1225.6 1762.23C1230.53 1765.09 1235.37 1768.47 1241.04 1769.66C1243.73 1770.04 1246.35 1768.88 1248.35 1767.16C1252.88 1762.85 1257.23 1758.34 1261.66 1753.93C1267.05 1747.85 1280.3 1737.06 1271.21 1729.09C1244.58 1712.06 1219.7 1701.5 1193.38 1683.13L1193.35 1683.08ZM1242 1761.48C1233.73 1758.72 1215.71 1746.17 1202.78 1738.2C1193.85 1732.83 1185.95 1725.76 1177.07 1720.4C1173.82 1718.97 1169.86 1721.48 1170.11 1725.1C1170.19 1728.81 1171.8 1732.27 1172.87 1735.79C1178.06 1750.48 1184.48 1764.73 1190.6 1779.04C1191.49 1781.23 1192.49 1783.41 1193.38 1785.6C1185.46 1789.08 1177.19 1791.82 1169.12 1794.97C1167.98 1795.57 1166.59 1795.94 1165.27 1796.4C1144.47 1746.26 1122.31 1696.67 1104.18 1645.49C1101.3 1637.57 1098.11 1629.72 1095.68 1621.63C1095.58 1621.21 1095.45 1620.78 1095.33 1620.38C1095.5 1620.22 1095.67 1620.09 1095.78 1619.89C1117.77 1591.95 1154.43 1566.77 1186.88 1577.25C1203.1 1583.28 1215.46 1592.86 1221.52 1608.69C1225.28 1619.85 1221.31 1633.68 1211.47 1645.98C1203.22 1658.31 1196.19 1664.9 1183.96 1673.74C1173.35 1683.85 1195.53 1693.95 1202.39 1698.89C1219.8 1709.02 1236.58 1718.15 1251.87 1726.96C1256.04 1729.32 1264.71 1734.39 1266.04 1735.36C1265.08 1737.58 1265.12 1737.4 1264.74 1737.99C1259.01 1745.88 1242.51 1761.6 1242.03 1761.47L1242 1761.48Z" fill="#1F7AE0"/>
<path d="M1165.02 1599.58C1150.77 1600.75 1138.29 1608.86 1127.33 1617.52C1125.41 1619.5 1122.11 1621.49 1120.56 1624.06C1118.97 1625.09 1117.99 1627.06 1118.93 1629.05C1123.82 1641.95 1131.1 1653.76 1136.97 1666.24C1137.63 1668.02 1139.14 1669.72 1141.18 1669.55C1141.73 1669.48 1142.19 1669.37 1142.61 1669.22C1143.36 1669.35 1144.14 1669.36 1144.88 1669.01C1149.96 1666.45 1154.92 1663.67 1159.9 1660.95C1169.2 1655.75 1178.64 1650.07 1185.01 1641.36C1198.71 1621.81 1192.17 1596.64 1164.99 1599.59L1165.02 1599.58ZM1171.92 1643.35C1163.02 1650.54 1156.71 1653.24 1146.06 1659.16C1145.28 1659.61 1144.34 1660.02 1143.41 1660.51C1142.64 1659 1141.83 1657.58 1141.32 1656.48C1136.37 1647.33 1131.9 1637.84 1127.45 1628.47C1133.37 1621.82 1149.77 1611.49 1156.59 1609.52C1171.31 1604.8 1181.02 1609.11 1182.97 1614.94C1185.64 1626.71 1180.71 1635.71 1171.92 1643.35Z" fill="#1F7AE0"/>
<path d="M1170.31 1763.37C1165.58 1765.41 1168.7 1772.63 1173.44 1770.61C1178.17 1768.56 1175.05 1761.35 1170.31 1763.37Z" fill="#1F7AE0"/>
<path d="M1152.88 1721.82C1148.15 1723.87 1151.26 1731.08 1156.01 1729.06C1160.74 1727.02 1157.62 1719.8 1152.88 1721.82Z" fill="#1F7AE0"/>
<path d="M1129.5 1672.34C1124.76 1674.38 1127.88 1681.6 1132.63 1679.58C1137.36 1677.54 1134.24 1670.32 1129.5 1672.34Z" fill="#1F7AE0"/>
<path d="M1132.82 1594.29C1128.09 1596.34 1131.21 1603.56 1135.95 1601.54C1140.68 1599.49 1137.57 1592.27 1132.82 1594.29Z" fill="#1F7AE0"/>
<path d="M1186.82 1585.98C1182.09 1588.03 1185.2 1595.25 1189.95 1593.23C1194.68 1591.18 1191.56 1583.96 1186.82 1585.98Z" fill="#1F7AE0"/>
<path d="M1206.95 1612.84C1202.22 1614.88 1205.34 1622.1 1210.08 1620.08C1214.81 1618.03 1211.7 1610.82 1206.95 1612.84Z" fill="#1F7AE0"/>
<path d="M1163.71 1671.56C1158.98 1673.61 1162.1 1680.82 1166.84 1678.8C1171.57 1676.76 1168.45 1669.54 1163.71 1671.56Z" fill="#1F7AE0"/>
<path d="M1202.06 1715.1C1197.32 1717.15 1200.44 1724.36 1205.19 1722.34C1209.92 1720.3 1206.8 1713.08 1202.06 1715.1Z" fill="#1F7AE0"/>
<path d="M1238.91 1733.24C1234.18 1735.29 1237.3 1742.51 1242.04 1740.49C1246.77 1738.44 1243.66 1731.22 1238.91 1733.24Z" fill="#1F7AE0"/>
<path d="M527.989 1099.24C525.247 1096.88 525.756 1097.46 524.332 1095.75C524.332 1095.75 524.356 1095.74 524.38 1095.73C535.016 1088.39 544.331 1079.38 551.565 1068.6C556.191 1061.94 561.238 1055.32 563.563 1047.44C572.667 1021.36 552.262 997.4 529.297 987.61C497.273 973.828 461.885 992.18 438.82 1014.72C433.862 1019.56 429.329 1024.78 424.865 1030.03C423.767 1031.14 422.842 1032.51 423.071 1034.1C421.9 1035.24 421.307 1036.98 422.086 1038.65C442.637 1100.02 468.401 1159.79 494.101 1219.02C494.69 1219.65 495.382 1219.93 496.104 1220.08C496.735 1220.81 497.551 1221.37 498.57 1221.47C509.408 1218.51 519.982 1213.54 530.645 1209.71C532.962 1208.71 535.594 1207.57 536.512 1205.05C537.42 1202.51 536.162 1199.93 535.185 1197.61C528.444 1181.87 521.379 1166.24 515.517 1150.15C515.357 1149.65 515.228 1149.22 515.075 1148.8C518.023 1151.05 521.391 1153.6 523.736 1155.05C535.635 1163.23 547.944 1170.84 560.232 1178.39C565.161 1181.25 570.002 1184.63 575.672 1185.82C578.359 1186.2 580.981 1185.04 582.985 1183.32C587.514 1179.01 591.866 1174.5 596.294 1170.09C601.688 1164.01 614.931 1153.22 605.847 1145.25C579.211 1128.22 554.335 1117.66 528.009 1099.29L527.989 1099.24ZM576.636 1177.64C568.368 1174.88 550.34 1162.33 537.416 1154.36C528.481 1148.99 520.583 1141.92 511.707 1136.56C508.453 1135.13 504.496 1137.64 504.741 1141.26C504.828 1144.97 506.437 1148.43 507.5 1151.95C512.698 1166.64 519.111 1180.89 525.236 1195.2C526.127 1197.39 527.124 1199.57 528.014 1201.76C520.092 1205.24 511.823 1207.99 503.755 1211.13C502.613 1211.73 501.226 1212.1 499.905 1212.56C479.103 1162.42 456.939 1112.83 438.811 1061.65C435.932 1053.73 432.743 1045.88 430.309 1037.79C430.215 1037.37 430.086 1036.94 429.967 1036.54C430.129 1036.38 430.301 1036.25 430.418 1036.05C452.407 1008.11 489.06 982.933 521.516 993.407C537.729 999.438 550.092 1009.02 556.157 1024.85C559.915 1036.01 555.949 1049.84 546.108 1062.14C537.856 1074.47 530.82 1081.06 518.593 1089.9C507.979 1100.01 530.161 1110.11 537.023 1115.05C554.432 1125.18 571.214 1134.32 586.506 1143.12C590.674 1145.48 599.342 1150.55 600.678 1151.52C599.718 1153.74 599.752 1153.56 599.377 1154.15C593.646 1162.04 577.147 1177.76 576.66 1177.63L576.636 1177.64Z" fill="#1F7AE0"/>
<path d="M499.649 1015.74C485.401 1016.91 472.92 1025.02 461.964 1033.68C460.039 1035.66 456.747 1037.65 455.19 1040.22C453.601 1041.25 452.619 1043.22 453.567 1045.21C458.453 1058.11 465.732 1069.92 471.607 1082.4C472.262 1084.18 473.769 1085.88 475.816 1085.71C476.361 1085.64 476.827 1085.53 477.248 1085.38C477.994 1085.51 478.771 1085.52 479.509 1085.17C484.589 1082.61 489.55 1079.83 494.532 1077.11C503.834 1071.91 513.269 1066.23 519.646 1057.52C533.344 1037.97 526.8 1012.8 499.625 1015.75L499.649 1015.74ZM506.554 1059.51C497.658 1066.7 491.347 1069.4 480.696 1075.32C479.917 1075.77 478.976 1076.18 478.041 1076.67C477.277 1075.16 476.462 1073.74 475.958 1072.64C471.004 1063.49 466.529 1054 462.081 1044.63C468.002 1037.98 484.399 1027.65 491.224 1025.68C505.942 1020.96 515.655 1025.27 517.602 1031.1C520.277 1042.87 515.344 1051.87 506.554 1059.51Z" fill="#1F7AE0"/>
<path d="M504.943 1179.53C500.211 1181.57 503.329 1188.79 508.072 1186.77C512.804 1184.73 509.685 1177.51 504.943 1179.53Z" fill="#1F7AE0"/>
<path d="M487.511 1137.98C482.779 1140.03 485.897 1147.24 490.64 1145.22C495.372 1143.18 492.253 1135.96 487.511 1137.98Z" fill="#1F7AE0"/>
<path d="M464.131 1088.5C459.399 1090.54 462.517 1097.76 467.259 1095.74C471.991 1093.7 468.873 1086.48 464.131 1088.5Z" fill="#1F7AE0"/>
<path d="M467.458 1010.45C462.726 1012.5 465.844 1019.72 470.586 1017.7C475.318 1015.65 472.2 1008.43 467.458 1010.45Z" fill="#1F7AE0"/>
<path d="M521.45 1002.14C516.718 1004.19 519.837 1011.41 524.579 1009.39C529.311 1007.34 526.193 1000.12 521.45 1002.14Z" fill="#1F7AE0"/>
<path d="M541.587 1029C536.855 1031.04 539.973 1038.26 544.716 1036.24C549.448 1034.19 546.329 1026.98 541.587 1029Z" fill="#1F7AE0"/>
<path d="M498.345 1087.72C493.613 1089.77 496.731 1096.98 501.474 1094.96C506.206 1092.92 503.087 1085.7 498.345 1087.72Z" fill="#1F7AE0"/>
<path d="M536.691 1131.26C531.959 1133.31 535.077 1140.52 539.819 1138.5C544.551 1136.46 541.433 1129.24 536.691 1131.26Z" fill="#1F7AE0"/>
<path d="M573.548 1149.4C568.816 1151.45 571.934 1158.67 576.677 1156.65C581.409 1154.6 578.29 1147.38 573.548 1149.4Z" fill="#1F7AE0"/>
<path d="M288.243 2939.4C296.633 2897.45 297.264 2854.21 300.078 2811.61C300.63 2797.38 302.313 2783.21 302.55 2768.95C302.55 2766.38 303.128 2762.51 301.971 2760.12C301.945 2758.59 301.051 2757.09 299.631 2756.46C294.029 2754.46 288.427 2752.57 282.826 2750.6C271.307 2746.28 259.761 2741.97 248.137 2737.92C243.693 2736.68 239.274 2733.79 234.619 2733.97C233.147 2734.24 232.253 2735.18 231.832 2736.34C231.358 2736.58 230.911 2736.92 230.517 2737.39C219.892 2750.91 211.845 2766.14 202.666 2780.63C182.232 2812.69 157.405 2854.95 135.472 2890.82C129.87 2899.71 139.391 2907.26 146.202 2911.7C152.803 2915.6 158.904 2920.8 166.137 2923.41C172.317 2924.75 177.314 2920.44 181.075 2916.1C187.755 2908.42 192.699 2899.4 198.274 2890.9C202.692 2883.93 208.689 2873.83 212.002 2868.68C212.449 2868.78 212.87 2868.89 213.081 2868.99C215.921 2870.7 230.648 2875.91 237.749 2878.72C237.775 2879.01 237.828 2879.51 237.907 2880.57C237.118 2891.56 232.647 2912.57 231.069 2927.35C230.911 2929.69 230.622 2932.22 231.858 2934.35C234.199 2938.82 239.695 2940 244.14 2941.34C255.054 2944.26 266.257 2945.89 277.355 2947.97C282.957 2949.02 287.112 2944.6 288.164 2939.42L288.243 2939.4ZM239.195 2930.51C239.038 2927.46 240.695 2918.07 241.615 2912.07C242.904 2900.82 246.217 2889.67 246.007 2878.3C245.744 2874.57 243.43 2871.6 239.774 2870.62C233.699 2868.23 227.44 2866.34 221.496 2863.68C216.947 2862.02 209.951 2857.24 206.269 2862.52C195.276 2879.7 188.386 2892.87 176.446 2908.94C167.662 2919.15 169.109 2915.89 154.986 2907.65C157.09 2909.18 151.961 2905.63 150.936 2904.97C148.28 2903.13 145.65 2901.16 143.362 2898.87C143.283 2898.79 143.23 2898.71 143.151 2898.63C142.915 2898.34 142.494 2897.71 142.205 2897.29C142.126 2897.11 142.047 2896.9 141.994 2896.71C141.994 2896.63 141.968 2896.61 141.942 2896.61C142.126 2894.98 143.046 2894.43 144.624 2891.32C168.688 2852.29 191.042 2813.84 214.29 2777.37C222.338 2764.14 227.124 2755.17 236.802 2742.71C236.802 2742.71 236.802 2742.65 236.855 2742.63C252.634 2747.68 275.357 2757.09 294.397 2763.19C294.397 2763.72 294.397 2764.27 294.476 2764.77C294.792 2765.77 294.082 2774.24 294.371 2771.5C293.924 2784.89 292.451 2798.22 291.925 2811.58C290.321 2843.01 288.506 2874.46 285.166 2905.79C283.746 2916.2 283.089 2926.83 280.485 2937.03C280.432 2937.16 280.432 2937.21 280.406 2937.32C280.38 2937.42 280.301 2937.61 280.143 2938.08C280.012 2938.48 279.617 2939.32 279.38 2939.79C278.25 2940 242.299 2933.98 239.222 2930.56L239.195 2930.51Z" fill="#1F7AE0"/>
<path d="M260.235 2835.99C262.838 2824.63 265.942 2813.4 268.729 2802.06C268.966 2799.3 270.886 2795.73 270.518 2792.89C270.781 2792.44 270.991 2791.96 271.07 2791.44C271.727 2787.28 267.02 2786.42 264.048 2785.31C257.473 2783 250.819 2780.95 244.271 2778.6C243.298 2778.16 242.43 2778.18 241.615 2778.39C239.827 2777.95 237.749 2778.55 236.907 2780.58C229.78 2793.57 223.995 2807.27 217.367 2820.53C215.658 2825.6 209.714 2831.68 214.211 2836.75C216.052 2838.96 218.524 2840.51 221.075 2841.75C230.596 2845.64 240.247 2850.16 250.504 2851.64C253.134 2851.9 255.106 2849.82 256.237 2847.69C258.131 2844.01 259.156 2839.96 260.208 2835.99H260.235ZM224.494 2834.28C222.495 2833.2 221.838 2832.91 221.049 2832.02C221.233 2831.62 221.443 2831.26 221.601 2830.86C228.413 2816.08 235.908 2801.41 242.746 2786.7C249.268 2788.97 255.869 2791.02 262.365 2793.41C261.786 2795.3 261.471 2797.43 261.076 2798.96C259.13 2807.43 256.711 2815.77 254.659 2824.21C253.108 2831.44 250.793 2840.17 249.426 2843.17C241.352 2841.49 234.014 2838.25 224.494 2834.28Z" fill="#1F7AE0"/>
<path d="M167.531 2884.01C162.665 2881.8 159.273 2889.19 164.112 2891.45C168.977 2893.66 172.37 2886.27 167.531 2884.01Z" fill="#1F7AE0"/>
<path d="M201.062 2852.59C196.197 2850.38 192.804 2857.77 197.643 2860.03C202.509 2862.24 205.901 2854.85 201.062 2852.59Z" fill="#1F7AE0"/>
<path d="M203.587 2815.61C198.721 2813.4 195.329 2820.79 200.168 2823.05C205.033 2825.26 208.426 2817.87 203.587 2815.61Z" fill="#1F7AE0"/>
<path d="M237.512 2760.64C232.647 2758.43 229.254 2765.82 234.093 2768.08C238.959 2770.29 242.351 2762.9 237.512 2760.64Z" fill="#1F7AE0"/>
<path d="M273.857 2764.61C268.992 2762.4 265.599 2769.79 270.438 2772.06C275.303 2774.26 278.696 2766.87 273.857 2764.61Z" fill="#1F7AE0"/>
<path d="M277.092 2820.47C272.227 2818.26 268.834 2825.65 273.673 2827.91C278.538 2830.12 281.931 2822.73 277.092 2820.47Z" fill="#1F7AE0"/>
<path d="M268.045 2866.6C263.18 2864.39 259.787 2871.78 264.626 2874.05C269.491 2876.26 272.884 2868.87 268.045 2866.6Z" fill="#1F7AE0"/>
<path d="M268.125 2911.73C263.259 2909.52 259.867 2916.91 264.706 2919.18C269.571 2921.38 272.964 2913.99 268.125 2911.73Z" fill="#1F7AE0"/>
<path d="M138.695 425.234C134.082 422.728 129.21 420.727 124.244 419.001C119.323 417.313 114.257 415.995 109.211 414.71C107.077 414.135 104.725 415.564 104.253 417.723C104.253 417.723 104.253 417.723 104.24 417.774C102.877 418.145 101.696 419.102 101.373 420.648C83.389 477.71 61.6999 525.99 41.0822 579.865C36.6924 593.196 64.9533 605.181 75.2941 606.513C81.9228 606.75 84.906 599.627 87.1861 594.499C92.3435 582.682 95.743 570.193 99.9544 558.037C114.049 516.918 131.393 470.799 144.035 433.304C144.919 429.568 141.625 426.869 138.695 425.234ZM85.154 576.867C82.127 585.279 78.5831 595.919 75.4009 598.31C75.3242 598.291 75.2414 598.298 75.1841 598.311C67.953 596.438 66.0468 595.486 59.4321 592.085C53.4021 588.285 51.2779 587.117 48.884 583.393C48.8903 583.368 48.8709 583.336 48.8578 583.278C50.3978 575.858 58.7889 558.333 63.5058 545.326C78.0314 508.319 95.426 466.543 108.506 425.474C108.7 424.682 109.001 423.89 109.201 423.072C115.358 424.575 124.631 427.622 126.409 428.435C129.586 429.725 133.596 431.596 135.53 432.88C120.938 476.369 100.355 529.548 85.1602 576.842L85.154 576.867Z" fill="#1F7AE0"/>
<path d="M70.3077 562.822C65.2529 558.908 59.5558 565.504 64.8903 569.269C66.9567 570.342 69.1427 571.146 71.3162 572.001C71.3928 572.02 71.6104 572.127 72.0834 572.297C73.9777 573.409 76.6268 572.647 77.6684 570.709C80.191 564.476 71.9029 564.05 70.3332 562.828L70.3077 562.822Z" fill="#1F7AE0"/>
<path d="M83.8305 540.244C82.2534 538.83 79.9508 538.837 78.0271 538.178C76.6213 537.727 75.0765 537.512 73.7609 538.355C70.6835 540.095 71.4581 545.129 74.9129 545.837C77.5751 546.243 80.5137 548.178 83.1013 546.671C85.3711 545.357 85.7029 542 83.8111 540.212L83.8305 540.244Z" fill="#1F7AE0"/>
<path d="M91.561 501.577C90.2805 500.723 88.7582 499.973 87.1921 500.511C83.81 501.391 83.258 506.427 86.3606 508.023C89.0943 509.8 93.4263 512.238 95.5798 508.405C97.373 505.161 94.3926 502.62 91.561 501.577Z" fill="#1F7AE0"/>
<path d="M107.956 474.769C106.321 473.368 103.999 473.235 102.043 472.487C100.636 471.927 99.034 471.726 97.7121 472.594C94.6347 474.334 95.4094 479.368 98.8642 480.076C101.131 480.548 103.372 482.015 105.711 481.747C108.982 481.435 110.29 476.963 107.924 474.788L107.956 474.769Z" fill="#1F7AE0"/>
<path d="M116.008 440.11C114.454 439.379 112.853 438.284 111.077 438.906C107.695 439.787 107.143 444.823 110.245 446.419C113.016 447.934 117.244 450.13 119.284 446.432C120.818 443.693 118.786 440.815 115.976 440.129L116.008 440.11Z" fill="#1F7AE0"/>
<path d="M837.231 889.06C816.441 851.674 788.907 818.333 763.445 784.059C754.647 772.864 746.744 760.976 737.688 749.966C736.018 748.003 733.954 744.683 731.522 743.61C730.514 742.465 728.861 741.903 727.371 742.342C721.809 744.45 716.315 746.637 710.771 748.764C699.202 752.943 687.614 757.138 676.135 761.585C671.949 763.524 666.709 764.183 663.283 767.339C662.332 768.494 662.264 769.795 662.693 770.949C662.486 771.436 662.367 771.986 662.374 772.602C663.04 789.782 666.776 806.595 669.175 823.58C674.383 861.238 682.857 909.515 689.394 951.05C690.887 961.45 703.029 961.031 711.097 960.003C718.647 958.69 726.668 958.703 733.864 956C739.44 953.017 740.451 946.494 740.504 940.752C740.616 930.575 738.538 920.5 737.28 910.418C736.13 902.246 734.153 890.669 733.337 884.596C733.746 884.386 734.135 884.194 734.363 884.138C737.634 883.599 752.226 878.023 759.458 875.565C759.665 875.768 760.029 876.115 760.771 876.865C767.293 885.75 777.503 904.652 785.878 916.932C787.274 918.817 788.69 920.927 791.011 921.749C795.691 923.638 800.644 920.978 804.899 919.119C815.103 914.271 824.693 908.254 834.493 902.645C839.441 899.817 839.743 893.759 837.188 889.131L837.231 889.06ZM794.112 914.07C792.015 911.849 787.194 903.624 784.01 898.46C777.698 889.052 772.997 878.411 765.475 869.894C762.855 867.22 759.167 866.456 755.752 868.083C749.574 870.197 743.579 872.81 737.331 874.638C732.792 876.324 724.362 877.211 724.983 883.623C727.737 903.827 731.026 918.327 732.344 938.303C732.265 951.767 731.254 948.345 715.163 951.226C717.754 951.025 711.547 951.644 710.34 951.807C707.124 952.126 703.843 952.328 700.618 952.068C700.506 952.059 700.415 952.033 700.304 952.024C699.936 951.957 699.207 951.749 698.714 951.616C698.534 951.526 698.338 951.417 698.179 951.311C698.127 951.251 698.09 951.248 698.07 951.265C697.154 949.904 697.497 948.887 696.688 945.501C689.729 900.182 681.843 856.411 675.916 813.564C673.474 798.274 671.309 788.341 670.603 772.576C670.603 772.576 670.569 772.535 670.592 772.481C685.883 766.103 709.291 758.551 727.747 750.861C728.088 751.262 728.446 751.683 728.829 752.012C729.717 752.569 734.663 759.479 733.112 757.208C741.445 767.694 748.962 778.804 757.218 789.321C776.36 814.298 795.358 839.432 813.109 865.454C818.776 874.306 825.159 882.825 829.788 892.284C829.833 892.419 829.867 892.459 829.915 892.556C829.963 892.653 830.022 892.844 830.209 893.307C830.364 893.693 830.609 894.589 830.736 895.103C830.011 895.996 798.725 914.703 794.166 914.093L794.112 914.07Z" fill="#1F7AE0"/>
<path d="M748.895 828.445C743.516 818.105 738.604 807.54 733.383 797.101C731.774 794.844 730.919 790.876 728.798 788.951C728.708 788.44 728.562 787.943 728.281 787.491C726.09 783.9 721.942 786.289 718.962 787.374C712.455 789.871 706.058 792.62 699.553 795.08C698.522 795.37 697.879 795.952 697.394 796.641C695.742 797.459 694.551 799.266 695.223 801.354C698.212 815.867 702.683 830.053 706.224 844.443C708.21 849.416 707.62 857.895 714.334 858.847C717.167 859.337 720.056 858.917 722.8 858.206C732.573 855.002 742.856 852.193 751.622 846.669C753.796 845.165 753.952 842.305 753.433 839.95C752.49 835.918 750.647 832.169 748.875 828.462L748.895 828.445ZM720.564 850.301C718.343 850.775 717.655 850.981 716.475 850.811C716.359 850.391 716.281 849.974 716.146 849.572C711.757 833.901 707.957 817.866 703.64 802.238C710.073 799.735 716.43 797.02 722.929 794.634C723.715 796.451 724.855 798.278 725.543 799.696C729.548 807.407 733.107 815.325 737.014 823.084C740.518 829.598 744.413 837.748 745.314 840.918C738.074 844.867 730.389 847.157 720.564 850.301Z" fill="#1F7AE0"/>
<path d="M709.398 925.09C704.261 926.56 706.465 934.387 711.617 932.974C716.754 931.504 714.55 923.677 709.398 925.09Z" fill="#1F7AE0"/>
<path d="M714.577 879.427C709.44 880.897 711.644 888.724 716.795 887.312C721.933 885.842 719.728 878.015 714.577 879.427Z" fill="#1F7AE0"/>
<path d="M692.54 849.625C687.403 851.095 689.607 858.922 694.758 857.509C699.895 856.04 697.691 848.212 692.54 849.625Z" fill="#1F7AE0"/>
<path d="M682.765 785.777C677.628 787.247 679.832 795.074 684.984 793.661C690.121 792.191 687.917 784.364 682.765 785.777Z" fill="#1F7AE0"/>
<path d="M713.021 765.251C707.884 766.721 710.088 774.548 715.239 773.136C720.376 771.666 718.172 763.839 713.021 765.251Z" fill="#1F7AE0"/>
<path d="M751.679 805.703C746.542 807.173 748.747 815 753.898 813.587C759.035 812.117 756.831 804.29 751.679 805.703Z" fill="#1F7AE0"/>
<path d="M774.679 846.703C769.542 848.173 771.747 856 776.898 854.587C782.035 853.117 779.831 845.29 774.679 846.703Z" fill="#1F7AE0"/>
<path d="M803.982 881.025C798.845 882.495 801.049 890.322 806.201 888.909C811.338 887.439 809.134 879.612 803.982 881.025Z" fill="#1F7AE0"/>
<path d="M547.469 1804.94C514.727 1746.06 471.363 1693.55 431.261 1639.57C417.405 1621.94 404.958 1603.21 390.696 1585.87C388.066 1582.78 384.815 1577.55 380.985 1575.86C379.397 1574.06 376.794 1573.17 374.447 1573.87C365.687 1577.18 357.035 1580.63 348.302 1583.98C330.083 1590.56 311.831 1597.17 293.754 1604.17C287.161 1607.22 278.909 1608.26 273.513 1613.23C272.014 1615.05 271.908 1617.1 272.584 1618.92C272.258 1619.69 272.07 1620.55 272.08 1621.52C273.129 1648.58 279.014 1675.06 282.791 1701.81C290.993 1761.12 304.34 1837.15 314.635 1902.57C316.986 1918.95 336.109 1918.29 348.816 1916.67C360.707 1914.6 373.34 1914.62 384.672 1910.36C393.455 1905.67 395.048 1895.39 395.131 1886.35C395.308 1870.32 392.034 1854.45 390.053 1838.57C388.241 1825.7 385.129 1807.47 383.844 1797.91C384.487 1797.58 385.1 1797.27 385.459 1797.18C390.611 1796.34 413.592 1787.55 424.982 1783.68C425.308 1784 425.881 1784.55 427.05 1785.73C437.321 1799.72 453.401 1829.49 466.591 1848.83C468.79 1851.8 471.02 1855.13 474.677 1856.42C482.047 1859.39 489.848 1855.21 496.548 1852.28C512.62 1844.64 527.724 1835.17 543.157 1826.33C550.951 1821.88 551.426 1812.34 547.401 1805.05L547.469 1804.94ZM479.56 1844.33C476.258 1840.83 468.664 1827.87 463.649 1819.74C453.709 1804.92 446.305 1788.17 434.458 1774.75C430.332 1770.54 424.523 1769.34 419.145 1771.9C409.415 1775.23 399.974 1779.34 390.134 1782.22C382.985 1784.88 369.708 1786.28 370.686 1796.37C375.024 1828.19 380.204 1851.03 382.279 1882.49C382.155 1903.7 380.562 1898.31 355.22 1902.84C359.301 1902.53 349.526 1903.5 347.624 1903.76C342.559 1904.26 337.392 1904.58 332.312 1904.17C332.137 1904.16 331.993 1904.11 331.818 1904.1C331.239 1904 330.09 1903.67 329.314 1903.46C329.031 1903.32 328.722 1903.15 328.471 1902.98C328.39 1902.88 328.332 1902.88 328.3 1902.91C326.857 1900.76 327.398 1899.16 326.124 1893.83C315.164 1822.45 302.743 1753.52 293.408 1686.03C289.562 1661.95 286.152 1646.31 285.041 1621.48C285.041 1621.48 284.988 1621.42 285.024 1621.33C309.106 1611.29 345.971 1599.39 375.039 1587.28C375.576 1587.91 376.139 1588.58 376.744 1589.09C378.142 1589.97 385.932 1600.85 383.488 1597.28C396.612 1613.79 408.452 1631.29 421.455 1647.85C451.601 1687.19 481.522 1726.78 509.479 1767.76C518.404 1781.7 528.457 1795.12 535.747 1810.01C535.818 1810.23 535.872 1810.29 535.948 1810.44C536.023 1810.6 536.117 1810.9 536.41 1811.63C536.655 1812.23 537.041 1813.65 537.24 1814.45C536.098 1815.86 486.825 1845.32 479.645 1844.36L479.56 1844.33Z" fill="#1F7AE0"/>
<path d="M408.343 1709.47C399.872 1693.19 392.135 1676.55 383.912 1660.11C381.378 1656.55 380.031 1650.3 376.691 1647.27C376.551 1646.47 376.32 1645.68 375.878 1644.97C372.426 1639.32 365.893 1643.08 361.201 1644.79C350.952 1648.72 340.877 1653.05 330.633 1656.92C329.01 1657.38 327.995 1658.3 327.232 1659.38C324.631 1660.67 322.755 1663.52 323.812 1666.81C328.521 1689.66 335.562 1712 341.138 1734.67C344.267 1742.5 343.337 1755.85 353.911 1757.35C358.374 1758.12 362.923 1757.46 367.245 1756.34C382.637 1751.3 398.832 1746.87 412.638 1738.17C416.062 1735.81 416.308 1731.3 415.49 1727.59C414.005 1721.24 411.102 1715.34 408.311 1709.5L408.343 1709.47ZM363.724 1743.89C360.226 1744.64 359.142 1744.96 357.283 1744.7C357.101 1744.04 356.978 1743.38 356.765 1742.75C349.853 1718.06 343.869 1692.81 337.069 1668.2C347.201 1664.26 357.213 1659.98 367.448 1656.22C368.686 1659.08 370.482 1661.96 371.565 1664.19C377.872 1676.34 383.477 1688.81 389.631 1701.03C395.15 1711.29 401.284 1724.12 402.703 1729.12C391.3 1735.34 379.197 1738.94 363.724 1743.89Z" fill="#1F7AE0"/>
<path d="M346.141 1861.68C338.05 1864 341.522 1876.32 349.635 1874.1C357.725 1871.78 354.254 1859.46 346.141 1861.68Z" fill="#1F7AE0"/>
<path d="M354.295 1789.77C346.204 1792.08 349.676 1804.41 357.789 1802.18C365.88 1799.87 362.408 1787.54 354.295 1789.77Z" fill="#1F7AE0"/>
<path d="M319.59 1742.83C311.499 1745.14 314.971 1757.47 323.084 1755.25C331.175 1752.93 327.703 1740.6 319.59 1742.83Z" fill="#1F7AE0"/>
<path d="M304.196 1642.27C296.105 1644.59 299.577 1656.91 307.69 1654.69C315.781 1652.37 312.309 1640.05 304.196 1642.27Z" fill="#1F7AE0"/>
<path d="M351.849 1609.95C343.758 1612.26 347.23 1624.59 355.343 1622.36C363.433 1620.05 359.962 1607.72 351.849 1609.95Z" fill="#1F7AE0"/>
<path d="M412.731 1673.66C404.64 1675.97 408.111 1688.3 416.224 1686.07C424.315 1683.76 420.844 1671.43 412.731 1673.66Z" fill="#1F7AE0"/>
<path d="M448.954 1738.23C440.863 1740.54 444.335 1752.87 452.448 1750.64C460.538 1748.33 457.067 1736 448.954 1738.23Z" fill="#1F7AE0"/>
<path d="M495.105 1792.28C487.014 1794.6 490.486 1806.92 498.599 1804.7C506.69 1802.38 503.218 1790.06 495.105 1792.28Z" fill="#1F7AE0"/>
<path d="M1126 1074.94C1121.85 1070.94 1121.03 1069.83 1116.14 1065.55C1115.04 1064.79 1113.75 1064.11 1112.37 1064.16C1110.16 1064.08 1108.55 1065.8 1107.07 1067.23C1103.31 1071.08 1094.68 1076.78 1093.29 1077.54C1071.68 1088.61 1051.7 1088.19 1033.33 1072.62C1016.96 1055.78 1009.94 1018.38 1022.09 993.321C1028.42 977.105 1047.61 965.533 1064.99 953.019C1067.17 951.686 1069.31 949.538 1068.58 946.762C1067.21 942.11 1065.2 937.68 1063.61 933.097C1061.29 928.024 1062.21 925.769 1059.4 922.599C1059.31 922.523 1059.18 922.492 1059.06 922.427C1058.48 921.591 1057.61 920.962 1056.4 920.879C1028.1 919.415 990.099 955.386 977.622 979.217C960.88 1013.26 964.965 1055.77 984.972 1087.57C995.017 1103.26 1008.58 1118.08 1026.08 1125.35C1036.65 1129.57 1047.87 1132.86 1059.36 1132.83C1070.83 1132.81 1082.12 1129.86 1092.87 1126.02C1106.99 1120.66 1120.94 1113.14 1130.58 1101.25C1132.48 1098.29 1136.11 1095.39 1136.32 1091.75C1140.01 1087.28 1128.66 1078.41 1125.97 1074.95L1126 1074.94ZM1125.04 1095.07C1121.77 1099.39 1120.16 1100.85 1114.95 1105.06C1100.62 1115.55 1083.57 1122.22 1064.77 1124.42C1053.36 1125.44 1043.74 1123.27 1031.87 1118.83C1013.5 1112.48 998.022 1094.65 988.836 1077.96C969.171 1041.55 969.942 995.813 997.572 964.745C1009.22 952.058 1025.05 938.004 1042.45 931.405C1046.95 929.678 1049.78 929.067 1053.66 928.919C1055.43 934.913 1057.79 940.743 1059.93 946.606C1047.91 955.16 1035.35 963.375 1025.07 974.021C1006.14 995.009 1003.85 1026.8 1012.79 1052.73C1016.86 1064.23 1022.48 1076.07 1033.13 1082.78C1040.33 1087.68 1048.38 1091.58 1057.02 1092.92C1070.82 1094.53 1085.2 1091.37 1097.31 1084.64C1102.8 1081.42 1107.87 1077.56 1112.56 1073.29C1115.87 1076.14 1117.87 1078.4 1122.64 1083.19C1124.73 1085.41 1126.69 1087.78 1128.55 1090.19C1127.33 1091.74 1126.4 1093.63 1125.05 1095.03L1125.04 1095.07Z" fill="#1F7AE0"/>
<path d="M1036.81 945.871C1035.62 944.376 1034.59 942.359 1032.44 942.162C1028.94 941.602 1026.43 946.085 1028.73 948.789C1030.53 950.992 1032.31 954.866 1035.74 953.737C1039.52 952.805 1039.36 948.095 1036.78 945.881L1036.81 945.871Z" fill="#1F7AE0"/>
<path d="M1012.79 961.341C1011.73 960.453 1010.42 959.752 1009.01 959.987C1005.48 960.356 1004.19 965.312 1007.13 967.346C1008.74 968.371 1010.18 969.929 1012.04 970.475C1014.71 971.362 1017.58 968.703 1017.13 965.979C1016.82 963.592 1014.5 962.643 1012.82 961.33L1012.79 961.341Z" fill="#1F7AE0"/>
<path d="M999.359 991.417C998.723 990.802 995.267 990.08 994.217 989.901C992.545 989.473 990.819 988.582 989.134 989.39C985.843 990.657 985.908 995.75 989.23 996.959C992.096 997.505 995.111 999.131 998.015 998.631C1001.27 997.95 1002.04 993.271 999.359 991.417Z" fill="#1F7AE0"/>
<path d="M989.044 1028.97C987.438 1029.23 985.635 1029.43 984.655 1030.88C982.479 1033.62 985.062 1037.97 988.501 1037.39C991.879 1036.66 997.677 1036.43 997.11 1031.64C996.382 1027.4 992.183 1027.88 989.044 1028.97Z" fill="#1F7AE0"/>
<path d="M1004.84 1064.49C1002.68 1061.78 999.351 1063.24 997.234 1065.18C995.839 1066.06 994.361 1067.15 994.209 1068.93C993.65 1072.43 998.132 1074.95 1000.84 1072.65C1003.68 1070.88 1007.58 1068.09 1004.83 1064.47L1004.84 1064.49Z" fill="#1F7AE0"/>
<path d="M1020.8 1091.05C1018.81 1091.9 1018.29 1094.07 1017.36 1095.84C1016.59 1097.4 1015.69 1099.16 1016.52 1100.89C1017.78 1104.18 1022.88 1104.12 1024.09 1100.8C1024.77 1098.79 1026.42 1096.96 1026.47 1094.8C1026.66 1091.97 1023.3 1089.89 1020.8 1091.05Z" fill="#1F7AE0"/>
<path d="M1056.11 1105.55C1054.05 1103.95 1050.8 1104.91 1049.86 1107.32C1049.28 1108.71 1049.73 1110.23 1049.73 1111.69C1049.63 1113.33 1049.92 1115.13 1051.38 1116.14C1054.11 1118.31 1058.47 1115.73 1057.88 1112.29C1057.75 1109.97 1058.25 1107.07 1056.08 1105.54L1056.11 1105.55Z" fill="#1F7AE0"/>
<path d="M1086.92 1101.45C1084.5 1100.43 1081.62 1102.18 1081.32 1104.76C1081.07 1106.71 1082.46 1108.34 1083.18 1110.03C1083.79 1111.26 1084.49 1112.56 1085.88 1113.06C1089.12 1114.47 1092.68 1110.83 1091.17 1107.64C1089.77 1105.58 1089.4 1102.51 1086.89 1101.46L1086.92 1101.45Z" fill="#1F7AE0"/>
<path d="M1115.35 1092.5C1113.97 1090.94 1112.89 1088.63 1110.59 1088.39C1107.99 1088.01 1105.62 1090.43 1106.01 1093.01C1106.78 1095.45 1108.98 1098.6 1111.64 1099.12C1115.14 1099.68 1117.66 1095.2 1115.35 1092.5Z" fill="#1F7AE0"/>
<path d="M853.306 1491.78C849.158 1487.78 848.34 1486.67 843.443 1482.39C842.345 1481.63 841.054 1480.95 839.672 1481C837.462 1480.91 835.853 1482.63 834.379 1484.07C830.618 1487.91 821.988 1493.61 820.6 1494.38C798.989 1505.44 779.009 1505.02 760.638 1489.46C744.263 1472.61 737.25 1435.22 749.399 1410.16C755.726 1393.94 774.916 1382.37 792.299 1369.85C794.475 1368.52 796.616 1366.37 795.884 1363.6C794.52 1358.95 792.507 1354.51 790.915 1349.93C788.598 1344.86 789.52 1342.6 786.702 1339.43C786.612 1339.36 786.485 1339.33 786.371 1339.26C785.784 1338.43 784.913 1337.8 783.705 1337.71C755.409 1336.25 717.406 1372.22 704.929 1396.05C688.187 1430.09 692.271 1472.61 712.279 1504.4C722.324 1520.1 735.884 1534.92 753.389 1542.18C763.956 1546.41 775.179 1549.69 786.667 1549.66C798.132 1549.64 809.428 1546.69 820.174 1542.86C834.298 1537.49 848.242 1529.97 857.884 1518.09C859.79 1515.12 863.413 1512.23 863.627 1508.59C867.319 1504.11 855.964 1495.25 853.281 1491.79L853.306 1491.78ZM852.345 1511.9C849.075 1516.22 847.469 1517.68 842.262 1521.89C827.93 1532.38 810.878 1539.06 792.075 1541.25C780.669 1542.28 771.042 1540.11 759.18 1535.66C740.809 1529.32 725.328 1511.49 716.143 1494.79C696.477 1458.39 697.248 1412.65 724.878 1381.58C736.523 1368.89 752.359 1354.84 769.76 1348.24C774.257 1346.51 777.085 1345.9 780.97 1345.75C782.738 1351.75 785.093 1357.58 787.234 1363.44C775.22 1371.99 762.66 1380.21 752.373 1390.86C733.442 1411.84 731.159 1443.64 740.095 1469.57C744.166 1481.07 749.784 1492.91 760.441 1499.62C767.634 1504.52 775.687 1508.42 784.327 1509.75C798.123 1511.36 812.505 1508.2 824.612 1501.47C830.103 1498.26 835.173 1494.4 839.866 1490.13C843.174 1492.97 845.173 1495.23 849.945 1500.03C852.042 1502.25 853.999 1504.61 855.861 1507.02C854.638 1508.57 853.702 1510.46 852.359 1511.87L852.345 1511.9Z" fill="#1F7AE0"/>
<path d="M764.114 1362.71C762.93 1361.21 761.894 1359.19 759.75 1359C756.248 1358.44 753.734 1362.92 756.037 1365.62C757.84 1367.83 759.615 1371.7 763.051 1370.57C766.829 1369.64 766.67 1364.93 764.09 1362.72L764.114 1362.71Z" fill="#1F7AE0"/>
<path d="M740.1 1378.18C739.033 1377.29 737.731 1376.59 736.315 1376.82C732.782 1377.19 731.501 1382.15 734.433 1384.18C736.045 1385.21 737.485 1386.76 739.35 1387.31C742.019 1388.2 744.886 1385.54 744.433 1382.81C744.126 1380.43 741.802 1379.48 740.124 1378.17L740.1 1378.18Z" fill="#1F7AE0"/>
<path d="M726.665 1408.25C726.03 1407.64 722.573 1406.92 721.523 1406.74C719.852 1406.31 718.125 1405.42 716.44 1406.23C713.149 1407.49 713.215 1412.59 716.537 1413.79C719.403 1414.34 722.418 1415.97 725.322 1415.47C728.578 1414.79 729.348 1410.11 726.665 1408.25Z" fill="#1F7AE0"/>
<path d="M716.35 1445.81C714.745 1446.07 712.942 1446.27 711.961 1447.72C709.786 1450.45 712.369 1454.81 715.808 1454.22C719.185 1453.49 724.983 1453.27 724.417 1448.47C723.688 1444.24 719.489 1444.72 716.35 1445.81Z" fill="#1F7AE0"/>
<path d="M732.145 1481.33C729.983 1478.62 726.658 1480.07 724.541 1482.01C723.146 1482.9 721.668 1483.99 721.516 1485.77C720.956 1489.27 725.439 1491.78 728.143 1489.48C730.992 1487.72 734.89 1484.93 732.135 1481.3L732.145 1481.33Z" fill="#1F7AE0"/>
<path d="M748.102 1507.88C746.12 1508.73 745.591 1510.9 744.663 1512.67C743.899 1514.23 742.995 1515.99 743.823 1517.73C745.091 1521.02 750.184 1520.95 751.393 1517.63C752.077 1515.62 753.727 1513.8 753.772 1511.63C753.962 1508.8 750.609 1506.72 748.102 1507.88Z" fill="#1F7AE0"/>
<path d="M783.417 1522.39C781.356 1520.78 778.106 1521.74 777.163 1524.15C776.587 1525.54 777.039 1527.07 777.036 1528.53C776.939 1530.17 777.222 1531.97 778.683 1532.97C781.418 1535.15 785.776 1532.56 785.189 1529.12C785.054 1526.81 785.555 1523.9 783.383 1522.37L783.417 1522.39Z" fill="#1F7AE0"/>
<path d="M814.222 1518.29C811.808 1517.26 808.924 1519.01 808.631 1521.6C808.375 1523.54 809.763 1525.18 810.489 1526.87C811.1 1528.1 811.801 1529.4 813.185 1529.89C816.425 1531.31 819.985 1527.66 818.476 1524.48C817.077 1522.42 816.705 1519.34 814.198 1518.3L814.222 1518.29Z" fill="#1F7AE0"/>
<path d="M842.659 1509.33C841.277 1507.78 840.2 1505.46 837.893 1505.22C835.3 1504.84 832.931 1507.26 833.321 1509.84C834.084 1512.29 836.291 1515.44 838.946 1515.96C842.448 1516.52 844.962 1512.03 842.659 1509.33Z" fill="#1F7AE0"/>
<path d="M1276.72 161.045C1272.57 157.043 1271.75 155.935 1266.86 151.652C1265.76 150.893 1264.47 150.216 1263.09 150.264C1260.88 150.181 1259.27 151.901 1257.79 153.334C1254.03 157.177 1245.4 162.879 1244.01 163.645C1222.4 174.709 1202.42 174.287 1184.05 158.727C1167.68 141.882 1160.67 104.486 1172.81 79.4229C1179.14 63.2066 1198.33 51.6352 1215.71 39.1209C1217.89 37.788 1220.03 35.6402 1219.3 32.8637C1217.94 28.2122 1215.92 23.7817 1214.33 19.1992C1212.01 14.1264 1212.94 11.8714 1210.12 8.70129C1210.03 8.62531 1209.9 8.59423 1209.79 8.52862C1209.2 7.69292 1208.33 7.06441 1207.12 6.98152C1178.82 5.51685 1140.82 41.4885 1128.34 65.3191C1111.6 99.3608 1115.69 141.874 1135.69 173.671C1145.74 189.367 1159.3 204.185 1176.8 211.447C1187.37 215.674 1198.59 218.962 1210.08 218.931C1221.55 218.91 1232.84 215.958 1243.59 212.125C1257.71 206.759 1271.66 199.238 1281.3 187.352C1283.21 184.389 1286.83 181.492 1287.04 177.853C1290.73 173.381 1279.38 164.513 1276.7 161.056L1276.72 161.045ZM1275.76 181.171C1272.49 185.491 1270.88 186.951 1265.68 191.157C1251.35 201.648 1234.29 208.326 1215.49 210.519C1204.08 211.544 1194.46 209.375 1182.6 204.931C1164.22 198.584 1148.74 180.754 1139.56 164.061C1119.89 127.653 1120.66 81.9152 1148.29 50.847C1159.94 38.16 1175.77 24.1056 1193.18 17.5067C1197.67 15.7802 1200.5 15.169 1204.38 15.0206C1206.15 21.0155 1208.51 26.8446 1210.65 32.7082C1198.63 41.2617 1186.08 49.4767 1175.79 60.1228C1156.86 81.1113 1154.57 112.905 1163.51 138.832C1167.58 150.335 1173.2 162.176 1183.86 168.883C1191.05 173.783 1199.1 177.685 1207.74 179.018C1221.54 180.631 1235.92 177.472 1248.03 170.738C1253.52 167.527 1258.59 163.666 1263.28 159.395C1266.59 162.24 1268.59 164.502 1273.36 169.295C1275.46 171.516 1277.41 173.881 1279.28 176.288C1278.05 177.842 1277.12 179.731 1275.77 181.136L1275.76 181.171Z" fill="#1F7AE0"/>
<path d="M1187.53 31.9728C1186.35 30.4776 1185.31 28.4609 1183.16 28.264C1179.66 27.7045 1177.15 32.1868 1179.45 34.8907C1181.25 37.0939 1183.03 40.9684 1186.47 39.8393C1190.24 38.907 1190.08 34.1968 1187.51 31.9832L1187.53 31.9728Z" fill="#1F7AE0"/>
<path d="M1163.51 47.4426C1162.45 46.5551 1161.15 45.854 1159.73 46.0888C1156.2 46.4583 1154.92 51.4136 1157.85 53.4476C1159.46 54.4733 1160.9 56.0307 1162.76 56.5764C1165.43 57.4639 1168.3 54.8049 1167.85 52.0803C1167.54 49.6941 1165.22 48.7445 1163.54 47.4322L1163.51 47.4426Z" fill="#1F7AE0"/>
<path d="M1150.08 77.5189C1149.44 76.9042 1145.99 76.1825 1144.94 76.0029C1143.27 75.5746 1141.54 74.6837 1139.86 75.4917C1136.56 76.759 1136.63 81.8525 1139.95 83.0612C1142.82 83.6069 1145.83 85.2334 1148.74 84.7327C1151.99 84.0525 1152.76 79.3734 1150.08 77.5189Z" fill="#1F7AE0"/>
<path d="M1139.77 115.074C1138.16 115.333 1136.36 115.533 1135.38 116.983C1133.2 119.718 1135.78 124.076 1139.22 123.489C1142.6 122.757 1148.4 122.533 1147.83 117.74C1147.1 113.503 1142.9 113.986 1139.77 115.074Z" fill="#1F7AE0"/>
<path d="M1155.56 150.594C1153.4 147.887 1150.07 149.341 1147.96 151.278C1146.56 152.162 1145.08 153.253 1144.93 155.035C1144.37 158.537 1148.85 161.051 1151.56 158.747C1154.41 156.983 1158.3 154.196 1155.55 150.57L1155.56 150.594Z" fill="#1F7AE0"/>
<path d="M1171.52 177.149C1169.53 177.998 1169.01 180.17 1168.08 181.942C1167.31 183.499 1166.41 185.26 1167.24 186.994C1168.51 190.285 1173.6 190.219 1174.81 186.897C1175.49 184.887 1177.14 183.064 1177.19 180.899C1177.38 178.071 1174.02 175.988 1171.52 177.149Z" fill="#1F7AE0"/>
<path d="M1206.83 191.653C1204.77 190.048 1201.52 191.011 1200.58 193.418C1200 194.809 1200.45 196.332 1200.45 197.793C1200.35 199.437 1200.64 201.232 1202.1 202.237C1204.83 204.413 1209.19 201.83 1208.6 198.391C1208.47 196.074 1208.97 193.169 1206.8 191.64L1206.83 191.653Z" fill="#1F7AE0"/>
<path d="M1237.64 187.555C1235.22 186.53 1232.34 188.28 1232.05 190.867C1231.79 192.807 1233.18 194.444 1233.9 196.136C1234.51 197.362 1235.22 198.664 1236.6 199.158C1239.84 200.574 1243.4 196.931 1241.89 193.743C1240.49 191.682 1240.12 188.608 1237.61 187.566L1237.64 187.555Z" fill="#1F7AE0"/>
<path d="M1266.07 178.597C1264.69 177.043 1263.61 174.73 1261.31 174.488C1258.71 174.111 1256.35 176.529 1256.74 179.108C1257.5 181.557 1259.71 184.702 1262.36 185.224C1265.86 185.783 1268.38 181.301 1266.07 178.597Z" fill="#1F7AE0"/>
<path d="M183.206 1130.05C191.595 1088.1 192.226 1044.86 195.04 1002.26C195.593 988.032 197.276 973.856 197.512 959.602C197.512 957.025 198.091 953.159 196.934 950.766C196.908 949.241 196.013 947.741 194.593 947.11C188.992 945.112 183.39 943.218 177.788 941.246C166.269 936.933 154.724 932.62 143.1 928.569C138.655 927.333 134.237 924.441 129.582 924.625C128.109 924.888 127.215 925.834 126.794 926.992C126.321 927.228 125.874 927.57 125.479 928.043C114.854 941.561 106.807 956.788 97.6286 971.279C77.2205 1003.34 52.3942 1045.57 30.4607 1081.45C24.859 1090.34 34.3793 1097.88 41.1908 1102.33C47.7918 1106.22 53.8932 1111.43 61.1255 1114.03C67.3057 1115.37 72.3026 1111.06 76.0633 1106.72C82.7433 1099.04 87.6875 1090.02 93.2629 1081.52C97.6812 1074.56 103.677 1064.46 106.991 1059.3C107.438 1059.41 107.859 1059.51 108.069 1059.62C110.91 1061.33 125.637 1066.53 132.738 1069.35C132.764 1069.64 132.817 1070.14 132.896 1071.19C132.107 1082.18 127.636 1103.2 126.058 1117.98C125.9 1120.32 125.611 1122.84 126.847 1124.97C129.187 1129.44 134.684 1130.63 139.128 1131.97C150.043 1134.89 161.246 1136.52 172.344 1138.59C177.946 1139.65 182.101 1135.23 183.153 1130.05H183.206ZM134.158 1121.16C134 1118.11 135.657 1108.72 136.577 1102.72C137.866 1091.47 141.18 1080.32 140.969 1068.95C140.706 1065.22 138.392 1062.25 134.737 1061.27C128.661 1058.88 122.402 1056.99 116.459 1054.33C111.909 1052.67 104.913 1047.89 101.232 1053.17C90.2385 1070.35 83.3482 1083.52 71.4084 1099.59C62.6245 1109.8 64.0709 1106.54 49.9484 1098.3C52.0523 1099.83 46.924 1096.28 45.8983 1095.62C43.2421 1093.78 40.6122 1091.81 38.3242 1089.52C38.2453 1089.44 38.1927 1089.36 38.1138 1089.28C37.8771 1088.99 37.4563 1088.36 37.167 1087.94C37.0881 1087.76 37.0092 1087.55 36.9566 1087.36C36.9566 1087.28 36.9303 1087.26 36.904 1087.26C37.0881 1085.63 38.0086 1085.08 39.5865 1081.97C63.6502 1042.94 86.0044 1004.49 109.253 968.018C117.3 954.79 122.087 945.822 131.765 933.356C131.765 933.356 131.765 933.303 131.817 933.277C147.597 938.326 170.319 947.741 189.36 953.843C189.36 954.369 189.36 954.921 189.439 955.421C189.754 956.42 189.044 964.888 189.333 962.153C188.886 975.54 187.414 988.873 186.888 1002.23C185.283 1033.66 183.469 1065.11 180.129 1096.44C178.709 1106.85 178.051 1117.48 175.447 1127.68C175.395 1127.81 175.395 1127.86 175.369 1127.97C175.342 1128.07 175.263 1128.26 175.106 1128.73C174.974 1129.13 174.58 1129.97 174.343 1130.44C173.212 1130.65 137.261 1124.63 134.184 1121.21L134.158 1121.16Z" fill="#1F7AE0"/>
<path d="M155.223 1026.64C157.827 1015.28 160.93 1004.05 163.718 992.714C163.955 989.952 165.874 986.376 165.506 983.536C165.769 983.088 165.98 982.615 166.059 982.089C166.716 977.934 162.009 977.066 159.037 975.961C152.462 973.647 145.808 971.596 139.26 969.255C138.287 968.808 137.419 968.834 136.604 969.045C134.815 968.598 132.738 969.203 131.896 971.228C124.769 984.219 118.983 997.921 112.356 1011.18C110.646 1016.25 104.703 1022.33 109.2 1027.4C111.041 1029.61 113.513 1031.16 116.064 1032.4C125.584 1036.29 135.236 1040.81 145.493 1042.29C148.123 1042.55 150.095 1040.47 151.226 1038.34C153.119 1034.66 154.145 1030.61 155.197 1026.64H155.223ZM119.483 1024.93C117.484 1023.85 116.827 1023.56 116.038 1022.67C116.222 1022.27 116.432 1021.91 116.59 1021.51C123.401 1006.73 130.897 992.056 137.734 977.355C144.257 979.617 150.858 981.668 157.354 984.062C156.775 985.955 156.459 988.085 156.065 989.611C154.119 998.079 151.699 1006.42 149.648 1014.86C148.096 1022.09 145.782 1030.82 144.414 1033.82C136.341 1032.14 129.003 1028.9 119.483 1024.93Z" fill="#1F7AE0"/>
<path d="M62.4922 1074.69C57.6269 1072.48 54.2343 1079.87 59.0734 1082.13C63.9387 1084.34 67.3313 1076.95 62.4922 1074.69Z" fill="#1F7AE0"/>
<path d="M96.0235 1043.26C91.1582 1041.05 87.7656 1048.44 92.6046 1050.7C97.4699 1052.91 100.863 1045.52 96.0235 1043.26Z" fill="#1F7AE0"/>
<path d="M98.5753 1006.26C93.7099 1004.05 90.3173 1011.44 95.1564 1013.7C100.022 1015.91 103.414 1008.52 98.5753 1006.26Z" fill="#1F7AE0"/>
<path d="M132.475 951.323C127.61 949.114 124.217 956.504 129.056 958.766C133.922 960.975 137.314 953.585 132.475 951.323Z" fill="#1F7AE0"/>
<path d="M168.82 955.293C163.955 953.084 160.562 960.474 165.401 962.736C170.266 964.945 173.659 957.555 168.82 955.293Z" fill="#1F7AE0"/>
<path d="M172.082 1011.12C167.216 1008.91 163.824 1016.3 168.663 1018.56C173.528 1020.77 176.921 1013.38 172.082 1011.12Z" fill="#1F7AE0"/>
<path d="M163.008 1057.25C158.143 1055.04 154.75 1062.43 159.589 1064.7C164.454 1066.91 167.847 1059.52 163.008 1057.25Z" fill="#1F7AE0"/>
<path d="M163.086 1102.41C158.221 1100.2 154.828 1107.59 159.667 1109.85C164.532 1112.06 167.925 1104.67 163.086 1102.41Z" fill="#1F7AE0"/>
<path d="M232.226 2335.68C232.226 2335.68 232.167 2335.68 232.131 2335.67C228.973 2333.56 222.802 2336.3 219.182 2336.1C210.447 2337.32 201.582 2336.97 192.864 2338.28C178.186 2340.18 184.264 2350.33 185.906 2360.25C189.912 2379.98 193.932 2399.72 196.727 2419.67C196.907 2421.12 197.122 2422.58 197.302 2424.03C176.906 2406.87 157.629 2388.3 136.232 2372.4C125.545 2365.41 113.384 2355.96 111.367 2375.86C108.053 2399.63 106.618 2423.64 103.647 2447.43C99.7483 2440.78 94.0306 2431.61 90.6129 2425.62C82.6186 2412.72 74.611 2399.79 66.3805 2387.06C62.6281 2382.06 59.6679 2374.99 53.3007 2373.02C50.2479 2372.5 47.4842 2374.18 44.9434 2375.67C31.1585 2383.87 21.6886 2389.98 8.56681 2396.82C5.60967 2397.55 4.43584 2399.91 4.70382 2401.98C2.93674 2403.23 2.13457 2405.87 3.71217 2407.78C40.5118 2451.65 76.1232 2496.62 113.85 2539.74C118.716 2544.81 122.892 2551.21 129.283 2554.41C141.42 2557.17 143.28 2540.74 144.629 2532.18C147.166 2510.72 148.695 2489.15 149.172 2467.56C149.536 2456.95 150.264 2446.34 150.911 2435.75C173.282 2457.57 197.667 2477.26 221.346 2497.67C236.724 2510.48 253.375 2524.68 252.266 2492.59C251.588 2459.88 246.16 2427.54 242.376 2395.09C240.273 2377.58 239.327 2359.9 235.928 2342.56C235.345 2340.01 235.385 2336.39 232.262 2335.69L232.226 2335.68ZM231.165 2366.88C234.59 2407.34 242.241 2447.37 243.941 2487.96C244.06 2494.5 244.508 2497.14 243.319 2503.69C243.306 2503.67 243.234 2503.65 243.198 2503.64C239.275 2501.73 230.526 2494.82 224.708 2489.79C205.374 2473.35 185.943 2457.06 167.224 2439.96C162.544 2435.72 156.282 2430.04 154.158 2427.71C152.813 2426.46 151.781 2424.6 149.785 2424.37C148.007 2424.04 146.472 2425.06 145.659 2426.48C141.217 2428.26 143.331 2436.44 142.393 2440.56C141.867 2449.8 141.211 2459.03 140.979 2468.25C140.554 2488.68 139.005 2509.07 136.709 2529.38C135.634 2536.39 135.151 2541.33 132.729 2545.83C132.479 2545.98 132.052 2546.29 131.716 2546.55C130.798 2545.87 129.489 2544.62 128.948 2544.12C119.838 2534.61 111.537 2524.36 102.772 2514.56C77.8318 2484.98 53.7419 2454.72 28.6015 2425.31C22.9367 2418.51 17.8859 2411.2 11.9074 2404.65C11.8182 2404.55 11.729 2404.45 11.6398 2404.35C25.4469 2397.53 41.1606 2386.79 51.7604 2381.36C64.986 2397.05 85.2162 2433.06 99.5927 2456.79C101.196 2460.67 106.091 2463.71 109.298 2459.66C113.881 2449.23 112.311 2437.04 114.114 2425.93C116.213 2408.14 117.421 2390.24 120.282 2372.55C120.31 2372.44 120.319 2372.41 120.338 2372.34C123.387 2373.69 130.801 2378.27 136.261 2382.54C157.641 2399.24 177.001 2418.53 198.354 2435.18C210.914 2438.97 204.253 2418.52 203.96 2412.2C200.615 2390.38 196.082 2368.77 191.526 2347.17C191.499 2347.13 191.518 2347.05 191.501 2346.97C194.805 2345.8 201.302 2345.64 206.857 2345.34C213.834 2344.97 220.784 2344.19 227.702 2343.3C228.003 2344.8 228.376 2346.32 228.549 2347.5C229.721 2353.92 230.472 2360.4 231.211 2366.85L231.165 2366.88Z" fill="#1F7AE0"/>
<path d="M60.6674 2424.83C57.2406 2420.65 51.7089 2414.08 50.4803 2412.45C49.2861 2410.99 48.5088 2408.88 46.484 2408.39C43.237 2407.43 40.2798 2411.33 42.0868 2414.2C46.934 2421.12 57.9771 2433.61 60.5298 2437.23C62.3022 2439.06 63.3238 2441.99 65.8775 2442.81C68.2928 2443.5 70.8569 2441.48 70.8322 2438.99C70.8437 2438.29 70.6339 2437.62 70.2747 2437C67.0905 2432.93 63.929 2428.83 60.6541 2424.81L60.6674 2424.83Z" fill="#1F7AE0"/>
<path d="M94.6252 2469.95C92.0175 2465.5 85.2345 2469.48 87.8195 2473.94C92.6057 2480.64 98.1327 2486.79 103.578 2492.96C106.553 2495.85 108.855 2499.77 112.296 2502.05C115.147 2503.43 118.456 2500.39 117.561 2497.41C110.233 2487.41 99.8271 2477.93 94.6252 2469.95Z" fill="#1F7AE0"/>
<path d="M131.063 2405.28C125.698 2403.67 125.508 2409.12 125.196 2412.9C124.745 2416.91 124.294 2420.93 123.997 2424.94C122.963 2440.34 121.222 2450.78 119.364 2465.13C119.389 2470.27 127.229 2470.28 127.249 2465.11C128.866 2454.04 131.371 2434.03 132.38 2419.33C132.748 2415.85 133.153 2412.38 133.557 2408.91C133.559 2407.35 132.569 2405.77 131.063 2405.28Z" fill="#1F7AE0"/>
<path d="M216.693 2458.24C211.238 2454.39 204.449 2449.47 201.553 2447.24C189.625 2438.07 178.527 2427.94 167.274 2417.95C163.57 2414.39 158.097 2419.98 161.782 2423.61C177.034 2437.35 192.445 2450.99 209.387 2462.67C212.789 2464.37 216.642 2470.16 220.618 2467.22C222.23 2466.12 222.569 2463.78 221.611 2462.15C220.411 2460.42 218.281 2459.59 216.671 2458.25L216.693 2458.24Z" fill="#1F7AE0"/>
<path d="M211.459 2371.7C211.012 2373.12 212.971 2381.97 212.472 2379.61C213.914 2392.36 215.193 2405.15 217.019 2417.83C217.405 2418.49 217.494 2428.1 219.581 2431.81C221.955 2435.24 227.69 2432.33 226.471 2428.38C224.266 2415.32 222.772 2401.44 220.964 2384.63C220.154 2379.92 220.388 2374.6 218.366 2370.27C216.588 2367.65 212.162 2368.63 211.482 2371.69L211.459 2371.7Z" fill="#1F7AE0"/>
</g>
</svg>
